<svg xmlns="http://www.w3.org/2000/svg" xmlns:xlink="http://www.w3.org/1999/xlink" width="500" zoomAndPan="magnify" viewBox="0 0 375 374.999991" height="500" preserveAspectRatio="xMidYMid meet" version="1.0"><rect x="-37.5" width="450" fill="#ffffff" y="-37.499999" height="449.999989" fill-opacity="1"/><rect x="-37.5" width="450" fill="#ffffff" y="-37.499999" height="449.999989" fill-opacity="1"/><path fill="#ffb1bf" d="M 272.214844 116.203125 C 268.464844 105.808594 264.03125 95.667969 258.570312 86.054688 C 249.777344 70.128906 236.460938 56.367188 217.984375 49.800781 C 197.914062 37.507812 168.820312 42.425781 149.796875 58.875 C 96.445312 100.390625 128.328125 180.15625 140.140625 228.796875 C 145.253906 246.292969 150.625 263.707031 156.273438 281.023438 C 156.511719 281.933594 156.746094 282.847656 156.984375 283.761719 C 162.964844 304.050781 167.746094 337.5 198.910156 332.875 C 218.554688 330.179688 226.816406 315.539062 223.328125 299.304688 C 220.492188 287.085938 215.355469 275.71875 210 264.445312 C 209.535156 263.394531 209.0625 262.34375 208.59375 261.292969 C 195.117188 224.523438 181.753906 187.667969 171.398438 149.789062 C 170.085938 144.445312 168.492188 138.664062 167.269531 132.738281 C 166.769531 127.375 166.59375 122.25 166.8125 117.476562 C 167.082031 116.4375 167.390625 115.398438 167.753906 114.355469 C 170.007812 107.886719 173.898438 100.960938 180.753906 97.480469 C 187.59375 94.597656 193.523438 95.710938 198.523438 98.714844 C 204.367188 105.796875 208.726562 114.246094 213.125 121.898438 C 219.148438 131.722656 222.429688 143.6875 232.003906 151.078125 C 245.234375 162.785156 271.953125 157.75 276.734375 138.65625 C 278.574219 130.589844 275.917969 123.066406 272.21875 116.203125 Z M 272.214844 116.203125 " fill-opacity="1" fill-rule="nonzero"/><path fill="#faf8f6" d="M 223.027344 300.667969 C 197.8125 295.761719 174.113281 286.527344 153.703125 273.085938 C 151.398438 265.917969 149.148438 258.726562 146.941406 251.527344 C 160.828125 263.710938 177.363281 273.273438 195.019531 280.6875 C 203.144531 283.558594 211.585938 285.753906 220.015625 287.957031 C 221.304688 291.671875 222.429688 295.449219 223.328125 299.3125 C 223.433594 299.808594 223.53125 300.304688 223.617188 300.800781 C 223.421875 300.757812 223.226562 300.714844 223.03125 300.667969 Z M 223.027344 300.667969 " fill-opacity="1" fill-rule="nonzero"/><path fill="#faf8f6" d="M 196.761719 241.953125 C 189.589844 239.179688 182.671875 235.964844 175.878906 232.570312 C 162.597656 225.9375 150.203125 217.949219 138.675781 209.132812 C 137.777344 208.449219 136.871094 207.773438 136.007812 207.054688 C 136.207031 207.222656 136.40625 207.386719 136.609375 207.554688 C 135.703125 206.816406 134.800781 206.074219 133.894531 205.332031 C 131.730469 197.4375 129.480469 189.136719 127.433594 180.617188 C 127.515625 180.710938 127.597656 180.800781 127.683594 180.894531 C 129.875 183.195312 132.066406 185.484375 134.351562 187.703125 C 135.347656 188.664062 136.320312 189.640625 137.351562 190.5625 C 138.6875 191.757812 139.980469 193.011719 141.363281 194.15625 C 141.324219 194.125 141.285156 194.09375 141.25 194.0625 C 141.375 194.167969 141.496094 194.269531 141.621094 194.371094 C 141.503906 194.277344 141.390625 194.183594 141.273438 194.085938 C 141.601562 194.359375 141.929688 194.632812 142.257812 194.90625 C 142.269531 194.914062 142.28125 194.921875 142.289062 194.929688 C 142.304688 194.941406 142.316406 194.953125 142.328125 194.960938 C 142.40625 195.027344 142.484375 195.089844 142.5625 195.15625 C 142.5625 195.15625 142.558594 195.152344 142.554688 195.148438 C 142.519531 195.117188 142.484375 195.089844 142.445312 195.058594 C 142.554688 195.144531 142.664062 195.234375 142.769531 195.324219 C 142.902344 195.433594 143.03125 195.542969 143.164062 195.652344 C 143.417969 195.863281 143.667969 196.070312 143.921875 196.28125 C 144.167969 196.488281 144.414062 196.691406 144.660156 196.898438 C 144.589844 196.839844 144.515625 196.777344 144.441406 196.714844 C 144.519531 196.78125 144.597656 196.847656 144.675781 196.910156 C 144.726562 196.953125 144.777344 196.996094 144.832031 197.039062 C 144.785156 197 144.742188 196.964844 144.695312 196.925781 C 144.90625 197.101562 145.125 197.28125 145.335938 197.460938 C 145.410156 197.519531 145.484375 197.582031 145.558594 197.640625 C 147.257812 198.9375 148.933594 200.253906 150.617188 201.566406 C 152.339844 202.914062 154.164062 204.164062 155.933594 205.460938 C 159.421875 208.011719 163.085938 210.382812 166.730469 212.746094 C 166.707031 212.730469 166.683594 212.71875 166.660156 212.703125 C 166.808594 212.792969 166.953125 212.882812 167.101562 212.976562 C 167.03125 212.933594 166.957031 212.890625 166.886719 212.84375 C 167.105469 212.980469 167.324219 213.117188 167.542969 213.253906 C 167.542969 213.253906 167.546875 213.253906 167.546875 213.257812 C 167.566406 213.265625 167.589844 213.277344 167.609375 213.292969 C 168.003906 213.539062 168.394531 213.785156 168.789062 214.023438 C 168.730469 213.984375 168.671875 213.949219 168.609375 213.914062 C 169.453125 214.4375 170.296875 214.957031 171.144531 215.484375 C 170.921875 215.347656 170.707031 215.210938 170.484375 215.074219 C 170.816406 215.28125 171.148438 215.488281 171.484375 215.695312 C 175.515625 218.179688 179.734375 220.464844 183.976562 222.664062 C 188.195312 224.847656 192.476562 226.902344 196.824219 228.875 C 198.636719 233.953125 200.464844 239.023438 202.304688 244.09375 C 200.453125 243.386719 198.609375 242.671875 196.761719 241.957031 Z M 196.761719 241.953125 " fill-opacity="1" fill-rule="nonzero"/><path fill="#faf8f6" d="M 168.128906 213.613281 C 168.289062 213.714844 168.449219 213.8125 168.609375 213.910156 C 168.449219 213.8125 168.289062 213.714844 168.128906 213.613281 Z M 168.128906 213.613281 " fill-opacity="1" fill-rule="nonzero"/><path fill="#faf8f6" d="M 167.609375 213.292969 L 167.519531 213.234375 C 167.519531 213.234375 167.539062 213.246094 167.546875 213.25 C 167.53125 213.242188 167.519531 213.234375 167.507812 213.226562 L 167.34375 213.125 C 167.367188 213.140625 167.390625 213.15625 167.414062 213.171875 C 167.308594 213.105469 167.207031 213.042969 167.101562 212.976562 C 167.214844 213.046875 167.324219 213.117188 167.4375 213.1875 C 167.628906 213.300781 167.816406 213.417969 168.003906 213.535156 C 167.871094 213.457031 167.742188 213.375 167.609375 213.292969 Z M 167.609375 213.292969 " fill-opacity="1" fill-rule="nonzero"/><path fill="#faf8f6" d="M 145.667969 197.730469 C 145.8125 197.847656 145.953125 197.964844 146.09375 198.082031 C 145.953125 197.964844 145.808594 197.847656 145.667969 197.730469 Z M 145.667969 197.730469 " fill-opacity="1" fill-rule="nonzero"/><path fill="#faf8f6" d="M 145.488281 197.578125 C 145.507812 197.59375 145.527344 197.609375 145.542969 197.625 C 145.550781 197.628906 145.554688 197.632812 145.558594 197.636719 C 145.558594 197.636719 145.558594 197.636719 145.554688 197.632812 C 145.566406 197.644531 145.578125 197.652344 145.589844 197.660156 C 145.644531 197.707031 145.699219 197.753906 145.753906 197.796875 C 145.664062 197.722656 145.578125 197.652344 145.488281 197.578125 Z M 145.488281 197.578125 " fill-opacity="1" fill-rule="nonzero"/><path fill="#faf8f6" d="M 144.234375 196.535156 C 144.304688 196.597656 144.378906 196.65625 144.449219 196.714844 C 144.378906 196.652344 144.304688 196.59375 144.234375 196.535156 Z M 144.234375 196.535156 " fill-opacity="1" fill-rule="nonzero"/><path fill="#faf8f6" d="M 143.925781 196.28125 C 143.898438 196.261719 143.875 196.238281 143.847656 196.21875 C 143.941406 196.292969 144.035156 196.371094 144.128906 196.449219 C 144.0625 196.394531 143.992188 196.335938 143.929688 196.28125 Z M 143.925781 196.28125 " fill-opacity="1" fill-rule="nonzero"/><path fill="#faf8f6" d="M 143.578125 195.992188 C 143.472656 195.902344 143.359375 195.8125 143.25 195.71875 C 143.351562 195.804688 143.453125 195.886719 143.550781 195.96875 C 143.539062 195.960938 143.53125 195.953125 143.523438 195.945312 C 143.542969 195.960938 143.5625 195.980469 143.582031 195.996094 L 143.628906 196.035156 C 143.628906 196.035156 143.617188 196.023438 143.609375 196.015625 C 143.6875 196.082031 143.765625 196.148438 143.847656 196.21875 C 143.757812 196.140625 143.667969 196.070312 143.578125 195.996094 Z M 143.578125 195.992188 " fill-opacity="1" fill-rule="nonzero"/><path fill="#faf8f6" d="M 143.167969 195.652344 C 143.121094 195.613281 143.074219 195.574219 143.023438 195.535156 C 143.097656 195.597656 143.175781 195.65625 143.246094 195.71875 C 143.222656 195.695312 143.191406 195.675781 143.167969 195.652344 Z M 143.167969 195.652344 " fill-opacity="1" fill-rule="nonzero"/><path fill="#faf8f6" d="M 142.332031 194.960938 C 142.308594 194.945312 142.285156 194.921875 142.261719 194.90625 C 142.195312 194.851562 142.128906 194.796875 142.066406 194.742188 C 142.195312 194.847656 142.320312 194.953125 142.453125 195.058594 C 142.414062 195.027344 142.371094 194.996094 142.332031 194.960938 Z M 142.332031 194.960938 " fill-opacity="1" fill-rule="nonzero"/><path fill="#faf8f6" d="M 141.621094 194.367188 C 141.707031 194.4375 141.796875 194.511719 141.882812 194.585938 C 141.796875 194.511719 141.707031 194.441406 141.621094 194.367188 Z M 141.621094 194.367188 " fill-opacity="1" fill-rule="nonzero"/><path fill="#faf8f6" d="M 177.976562 178.574219 C 176.007812 177.691406 173.992188 176.867188 172.058594 175.925781 C 170.292969 175.070312 168.53125 174.210938 166.773438 173.355469 C 165.070312 172.523438 163.4375 171.574219 161.773438 170.691406 C 160.269531 169.882812 158.824219 168.992188 157.359375 168.128906 C 155.824219 167.222656 154.3125 166.300781 152.820312 165.347656 C 151.320312 164.382812 149.785156 163.449219 148.328125 162.4375 C 146.59375 161.238281 144.867188 160.042969 143.140625 158.839844 C 141.550781 157.738281 140.046875 156.527344 138.503906 155.375 C 137.203125 154.402344 135.953125 153.375 134.691406 152.359375 C 133.316406 151.253906 131.941406 150.148438 130.609375 149.003906 C 129.179688 147.777344 127.699219 146.585938 126.320312 145.3125 C 124.777344 143.890625 123.238281 142.472656 121.695312 141.054688 C 121.261719 140.652344 120.835938 140.242188 120.414062 139.828125 C 119.832031 132.671875 119.6875 125.5625 120.140625 118.621094 C 121.222656 119.921875 122.308594 121.222656 123.386719 122.523438 C 124.683594 123.929688 125.972656 125.34375 127.253906 126.757812 C 129.601562 129.132812 131.949219 131.492188 134.394531 133.777344 C 136.898438 136.125 139.492188 138.375 142.074219 140.65625 C 143.640625 141.953125 145.210938 143.242188 146.789062 144.527344 C 148.542969 145.957031 150.40625 147.296875 152.207031 148.683594 C 154 150.050781 155.902344 151.3125 157.746094 152.625 C 159.34375 153.769531 161.042969 154.800781 162.691406 155.886719 C 166.574219 157.785156 170.480469 159.648438 174.433594 161.433594 C 174.394531 161.414062 174.355469 161.398438 174.3125 161.378906 C 174.445312 161.441406 174.582031 161.5 174.714844 161.558594 C 176.457031 167.5625 178.269531 173.53125 180.136719 179.488281 C 179.410156 179.1875 178.6875 178.882812 177.976562 178.566406 Z M 177.976562 178.574219 " fill-opacity="1" fill-rule="nonzero"/><path fill="#faf8f6" d="M 165.554688 124.90625 C 160.316406 117.855469 155.382812 110.5625 151.695312 102.625 C 146.238281 90.59375 143.300781 77.265625 144.183594 63.667969 C 145.941406 62.019531 147.804688 60.421875 149.792969 58.875 C 152.824219 56.257812 156.109375 53.929688 159.574219 51.917969 C 154.871094 71.855469 159.890625 91.910156 170.445312 108.160156 C 168.824219 111.195312 167.644531 114.289062 166.808594 117.464844 C 166.671875 120.398438 166.6875 123.464844 166.835938 126.640625 C 166.40625 126.066406 165.980469 125.484375 165.554688 124.910156 Z M 165.554688 124.90625 " fill-opacity="1" fill-rule="nonzero"/><path fill="#faf8f6" d="M 183.402344 96.546875 C 192.496094 77.882812 211.804688 64.007812 232.148438 56.796875 C 236.519531 59.632812 240.507812 62.921875 244.113281 66.546875 C 226.386719 70.773438 209.246094 80.664062 198.46875 94.933594 C 198.511719 94.875 198.558594 94.816406 198.605469 94.757812 C 197.925781 95.730469 197.242188 96.695312 196.589844 97.675781 C 192.703125 95.824219 188.304688 95.160156 183.402344 96.546875 Z M 183.402344 96.546875 " fill-opacity="1" fill-rule="nonzero"/><path fill="#faf8f6" d="M 271.554688 140.25 C 254.65625 130.941406 235.488281 126.671875 215.175781 125.5 C 214.523438 124.277344 213.839844 123.074219 213.125 121.902344 C 211.4375 118.964844 209.753906 115.914062 207.992188 112.863281 C 232.171875 112.699219 256.273438 116.632812 276.585938 127.121094 C 277.453125 130.828125 277.640625 134.679688 276.734375 138.664062 C 276.390625 140.03125 275.933594 141.328125 275.378906 142.554688 C 274.105469 141.785156 272.828125 141.019531 271.554688 140.25 Z M 271.554688 140.25 " fill-opacity="1" fill-rule="nonzero"/></svg>