<svg xmlns="http://www.w3.org/2000/svg" xmlns:xlink="http://www.w3.org/1999/xlink" width="500" zoomAndPan="magnify" viewBox="0 0 375 374.999991" height="500" preserveAspectRatio="xMidYMid meet" version="1.0"><defs><clipPath id="d00d13d5eb"><path d="M 62 40 L 303 40 L 303 337.5 L 62 337.5 Z M 62 40 " clip-rule="nonzero"/></clipPath></defs><rect x="-37.5" width="450" fill="#ffffff" y="-37.499999" height="449.999989" fill-opacity="1"/><rect x="-37.5" width="450" fill="#ffffff" y="-37.499999" height="449.999989" fill-opacity="1"/><g clip-path="url(#d00d13d5eb)"><path fill="#f4b4b7" d="M 288.777344 240.464844 C 280.113281 230.222656 271.980469 225.988281 264.46875 227.929688 C 254.742188 230.402344 249.96875 242.496094 248.113281 248.9375 C 247.226562 248.851562 246.167969 248.761719 245.105469 248.671875 C 239.007812 241.171875 230.875 229.164062 221.324219 210.539062 C 205.234375 178.761719 200.902344 119.792969 199.84375 100.550781 C 199.929688 99.84375 200.019531 99.226562 200.109375 98.519531 C 207.976562 100.375 217.964844 102.140625 227.425781 102.140625 C 234.320312 102.140625 241.039062 101.167969 246.433594 98.609375 C 286.921875 79.542969 290.636719 56.324219 290.8125 55.355469 L 291.164062 52.707031 L 288.867188 51.292969 C 281 46.703125 272.511719 43.4375 263.582031 41.671875 C 243.957031 37.609375 225.921875 41.671875 211.246094 53.410156 C 200.195312 62.238281 192.242188 69.917969 187.378906 76.273438 C 178.714844 65.683594 166.335938 53.324219 153.785156 50.324219 C 110.289062 39.90625 92.785156 55.617188 92.078125 56.324219 L 90.132812 58.179688 L 91.015625 60.738281 C 94.289062 69.214844 98.882812 77.070312 104.71875 84.042969 C 117.539062 99.492188 134.160156 107.613281 152.898438 107.613281 C 170.667969 107.613281 183.488281 106.023438 191.179688 103.023438 C 187.730469 129.769531 178.804688 173.464844 156.4375 215.746094 C 149.539062 207.273438 129.648438 185.910156 107.195312 188.914062 C 77.402344 192.882812 63.699219 211.332031 62.550781 248.585938 C 61.3125 290.867188 136.28125 293.695312 139.460938 293.78125 L 140.167969 293.78125 C 149.011719 292.371094 157.496094 289.367188 165.277344 285.042969 C 182.425781 275.507812 193.125 260.589844 196.128906 241.875 C 198.25 228.546875 195.953125 219.367188 189.324219 214.601562 C 184.105469 210.894531 176.769531 210.1875 167.488281 212.570312 C 181.101562 184.941406 189.324219 157.132812 194.363281 134.007812 C 194.539062 135.683594 194.714844 137.359375 194.980469 139.125 C 199.046875 172.230469 205.5 197.476562 213.988281 214.335938 C 221.769531 229.605469 228.75 240.640625 234.496094 248.585938 C 222.828125 249.113281 208.332031 252.292969 201.082031 263.328125 C 187.113281 284.777344 192.328125 305.082031 218.054688 329.179688 C 223.625 334.476562 231.050781 337.390625 238.742188 337.300781 C 263.671875 337.300781 291.164062 311.4375 292.578125 310.023438 L 292.84375 309.757812 C 293.464844 309.054688 294.082031 308.257812 294.613281 307.464844 C 297.972656 301.550781 314.0625 270.476562 288.777344 240.464844 Z M 288.777344 240.464844 " fill-opacity="1" fill-rule="nonzero"/></g><path fill="#fffbea" d="M 118.332031 198.179688 L 120.457031 198.710938 L 119.394531 202.949219 L 117.273438 202.417969 C 106.929688 200.300781 96.234375 204.273438 89.777344 212.65625 C 78.464844 227.046875 78.199219 234.375 78.199219 234.460938 L 78.109375 236.667969 L 73.777344 236.667969 L 73.777344 234.375 C 73.777344 233.492188 74.132812 225.457031 86.332031 209.921875 C 99.238281 193.589844 117.539062 197.917969 118.332031 198.179688 Z M 217.613281 293.339844 C 215.050781 283.542969 221.503906 276.304688 221.855469 275.949219 L 223.359375 274.363281 L 220.089844 271.359375 L 218.585938 272.949219 C 218.230469 273.300781 210.097656 282.21875 213.371094 294.398438 C 216.550781 306.316406 222.917969 310.289062 223.183594 310.464844 L 225.039062 311.613281 L 227.335938 307.90625 L 225.480469 306.757812 C 225.480469 306.757812 220.265625 303.402344 217.613281 293.339844 Z M 104.808594 64.09375 L 190.824219 96.753906 L 192.417969 92.605469 L 106.398438 59.945312 Z M 289.21875 52.707031 L 197.988281 84.21875 L 199.402344 88.367188 L 290.636719 56.855469 Z M 289.21875 52.707031 " fill-opacity="1" fill-rule="nonzero"/></svg>