<svg xmlns="http://www.w3.org/2000/svg" xmlns:xlink="http://www.w3.org/1999/xlink" width="500" zoomAndPan="magnify" viewBox="0 0 375 374.999991" height="500" preserveAspectRatio="xMidYMid meet" version="1.0"><defs><clipPath id="5e4d872a65"><path d="M 92.625 187 L 278 187 L 278 246 L 92.625 246 Z M 92.625 187 " clip-rule="nonzero"/></clipPath><clipPath id="1ff71d1936"><path d="M 180 37.5 L 201 37.5 L 201 73 L 180 73 Z M 180 37.5 " clip-rule="nonzero"/></clipPath></defs><rect x="-37.5" width="450" fill="#ffffff" y="-37.499999" height="449.999989" fill-opacity="1"/><rect x="-37.5" width="450" fill="#ffffff" y="-37.499999" height="449.999989" fill-opacity="1"/><g clip-path="url(#5e4d872a65)"><path fill="#3c2415" d="M 272.179688 203.417969 C 266.453125 197.335938 258.234375 195.015625 250.347656 193.414062 C 238.488281 191.003906 226.457031 189.675781 214.417969 188.765625 C 182.488281 186.351562 150.273438 186.890625 118.667969 192.339844 C 112.625 193.382812 106.378906 194.707031 101.433594 198.609375 C 95.9375 202.953125 92.660156 210.359375 92.882812 217.722656 C 93.105469 225.082031 96.792969 232.203125 102.421875 236.335938 C 108.097656 240.507812 115.1875 241.574219 122.003906 242.375 C 164.820312 247.40625 208.132812 246.320312 250.9375 241.199219 C 255.507812 240.652344 260.136719 240.042969 264.390625 238.15625 C 276.75 232.675781 282.339844 214.203125 272.179688 203.417969 Z M 272.179688 203.417969 " fill-opacity="1" fill-rule="nonzero"/></g><path fill="#ffafaf" d="M 275.042969 227.488281 C 266.777344 259.679688 258.511719 291.871094 250.246094 324.0625 C 249.859375 325.574219 249.421875 327.164062 248.300781 328.246094 C 247.144531 329.359375 245.476562 329.722656 243.898438 330.023438 C 204.90625 337.507812 164.484375 337.492188 125.5 329.976562 C 123.988281 329.683594 122.398438 329.34375 121.273438 328.296875 C 120.105469 327.214844 119.652344 325.585938 119.253906 324.046875 C 111.269531 293.300781 103.285156 262.558594 95.300781 231.8125 C 94.917969 230.34375 93.472656 225.660156 95.191406 224.554688 C 96.605469 223.652344 99.226562 226.054688 100.148438 226.917969 C 103.066406 229.644531 105.015625 233.679688 108.917969 235.207031 C 113.472656 236.992188 118.570312 234.167969 121.984375 230.660156 C 125.25 227.308594 129.128906 222.792969 133.566406 224.277344 C 138.242188 225.835938 139.753906 233.378906 144.679688 233.289062 C 149.109375 233.203125 151.128906 226.730469 155.53125 226.230469 C 160.574219 225.65625 163.425781 233.183594 168.5 233.304688 C 174.117188 233.4375 177.671875 224.425781 183 226.203125 C 185.507812 227.042969 186.804688 230.066406 189.332031 230.851562 C 194.328125 232.398438 197.703125 224.363281 202.933594 224.3125 C 208.410156 224.261719 211.332031 232.871094 216.753906 232.089844 C 220.605469 231.535156 222.464844 226.417969 226.296875 225.746094 C 231.277344 224.871094 234.351562 231.867188 239.359375 232.558594 C 244.199219 233.230469 248.125 227.75 253.011719 227.945312 C 256.320312 228.078125 258.910156 230.761719 261.988281 231.988281 C 266.648438 233.84375 272.515625 231.820312 275.042969 227.488281 Z M 275.042969 227.488281 " fill-opacity="1" fill-rule="nonzero"/><path fill="#ff6c6c" d="M 132.894531 224.894531 L 146.457031 331.578125 L 130.78125 225.183594 C 130.628906 223.777344 132.644531 223.472656 132.894531 224.894531 Z M 132.894531 224.894531 " fill-opacity="1" fill-rule="nonzero"/><path fill="#ff6c6c" d="M 96.871094 225.414062 L 129.296875 329.082031 L 94.84375 226.070312 C 94.445312 224.710938 96.375 224.058594 96.871094 225.414062 Z M 96.871094 225.414062 " fill-opacity="1" fill-rule="nonzero"/><path fill="#ff6c6c" d="M 156.671875 227.160156 L 163.816406 332.847656 L 154.546875 227.324219 C 154.476562 225.910156 156.507812 225.726562 156.671875 227.160156 Z M 156.671875 227.160156 " fill-opacity="1" fill-rule="nonzero"/><path fill="#ff6c6c" d="M 182.214844 227.136719 L 182.011719 334.261719 L 180.082031 227.152344 C 180.113281 225.738281 182.152344 225.695312 182.214844 227.136719 Z M 182.214844 227.136719 " fill-opacity="1" fill-rule="nonzero"/><path fill="#ff6c6c" d="M 203.957031 225.578125 L 199.457031 333.960938 L 201.828125 225.511719 C 201.914062 224.097656 203.953125 224.136719 203.957031 225.578125 Z M 203.957031 225.578125 " fill-opacity="1" fill-rule="nonzero"/><path fill="#ff6c6c" d="M 228.410156 227.074219 L 214.542969 331.175781 L 226.296875 226.8125 C 226.507812 225.414062 228.535156 225.636719 228.410156 227.074219 Z M 228.410156 227.074219 " fill-opacity="1" fill-rule="nonzero"/><path fill="#ff6c6c" d="M 253.65625 229.785156 L 228.035156 329.601562 L 251.585938 229.273438 C 251.960938 227.910156 253.949219 228.371094 253.65625 229.785156 Z M 253.65625 229.785156 " fill-opacity="1" fill-rule="nonzero"/><path fill="#ff6c6c" d="M 273.871094 231.773438 L 242.289062 328.472656 L 271.839844 231.132812 C 272.304688 229.792969 274.257812 230.382812 273.871094 231.773438 Z M 273.871094 231.773438 " fill-opacity="1" fill-rule="nonzero"/><path fill="#ffafaf" d="M 128.054688 144.585938 C 119.441406 149.910156 110.628906 155.460938 104.304688 163.542969 C 97.90625 171.722656 94.246094 183.296875 97.550781 193.425781 C 101.25 204.769531 112.746094 211.308594 123.785156 211.992188 C 129.089844 212.320312 134.398438 211.578125 139.542969 210.308594 C 142.898438 209.484375 146.179688 208.078125 149.359375 206.738281 C 151.324219 205.914062 153.421875 205.203125 155.546875 205.390625 C 159.273438 205.71875 160.695312 209.058594 162.636719 211.6875 C 165.117188 215.039062 168.730469 217.351562 172.613281 218.761719 C 179.191406 221.148438 186.253906 221.6875 193.199219 221.53125 C 198.09375 221.417969 203.484375 222.054688 208.21875 220.59375 C 212.777344 219.1875 216.832031 216.015625 219.050781 211.765625 C 221.230469 207.597656 223.796875 208.523438 227.675781 209.796875 C 234.054688 211.886719 241.253906 213.765625 248.023438 213.09375 C 254.347656 212.464844 261.578125 209.167969 266.679688 205.503906 C 270.015625 203.105469 272.90625 200.015625 274.890625 196.410156 C 277.019531 192.535156 277.589844 188.199219 278.390625 183.914062 C 279.324219 178.894531 279.425781 173.578125 275.820312 169.550781 C 271.1875 164.371094 263.285156 165.316406 257.847656 161.382812 " fill-opacity="1" fill-rule="nonzero"/><path fill="#ffd8d7" d="M 148.269531 120.570312 C 140.992188 113.554688 128.808594 114.5625 121.714844 121.796875 C 114.617188 129.03125 112.652344 141.125 115.8125 151.132812 C 118.972656 161.140625 126.648438 169.003906 135.53125 173.3125 C 144.410156 177.617188 154.398438 178.640625 164.09375 177.863281 C 173.789062 177.085938 183.289062 174.585938 192.738281 172.09375 C 217.8125 186.636719 251.015625 182.332031 272.253906 161.789062 C 277.085938 157.113281 274.375 148.96875 270.90625 143.03125 C 267.4375 137.09375 261.75 133.003906 255.695312 130.535156 C 249.644531 128.066406 243.179688 127.070312 236.769531 126.15625 " fill-opacity="1" fill-rule="nonzero"/><path fill="#ffe9ea" d="M 238.730469 127.59375 C 233.90625 131.121094 228.039062 132.472656 222.296875 133.449219 C 206.257812 136.171875 189.882812 136.53125 173.757812 134.515625 C 166.15625 133.5625 158.375 131.988281 151.957031 127.453125 C 145.539062 122.917969 140.75 114.785156 141.777344 106.53125 C 142.558594 100.261719 146.546875 94.871094 151.414062 91.414062 C 156.28125 87.957031 161.980469 86.183594 167.640625 84.75 C 182.488281 80.988281 198.132812 79.28125 212.925781 83.285156 C 227.699219 87.285156 262.148438 110.472656 238.730469 127.59375 Z M 238.730469 127.59375 " fill-opacity="1" fill-rule="nonzero"/><path fill="#ff6c6c" d="M 249.035156 191.714844 C 249.179688 191.867188 249.449219 191.816406 249.527344 191.621094 C 249.957031 190.558594 250.8125 189.425781 251.585938 188.640625 C 252.480469 187.738281 253.84375 187.175781 255.085938 187.480469 C 256.539062 187.832031 257.453125 189.265625 257.558594 190.6875 C 257.664062 192.109375 257.121094 193.511719 256.492188 194.824219 C 255.210938 197.503906 253.535156 200.019531 251.535156 202.277344 C 251.441406 202.378906 251.289062 202.410156 251.167969 202.347656 C 248.464844 201.003906 245.96875 199.296875 243.777344 197.296875 C 242.703125 196.316406 241.671875 195.21875 241.238281 193.859375 C 240.804688 192.503906 241.113281 190.828125 242.328125 189.960938 C 243.367188 189.214844 244.84375 189.222656 246.007812 189.726562 C 247.023438 190.160156 248.234375 190.890625 249.035156 191.714844 Z M 249.035156 191.714844 " fill-opacity="1" fill-rule="nonzero"/><path fill="#ff6c6c" d="M 190.253906 196.101562 C 190.347656 196.289062 190.621094 196.324219 190.753906 196.160156 C 191.492188 195.285156 192.652344 194.472656 193.632812 193.964844 C 194.761719 193.382812 196.234375 193.269531 197.324219 193.941406 C 198.59375 194.726562 199.019531 196.375 198.679688 197.757812 C 198.34375 199.144531 197.390625 200.308594 196.390625 201.363281 C 194.339844 203.511719 191.96875 205.386719 189.367188 206.917969 C 189.25 206.988281 189.09375 206.96875 188.996094 206.871094 C 186.84375 204.757812 184.996094 202.363281 183.53125 199.78125 C 182.8125 198.519531 182.171875 197.15625 182.179688 195.730469 C 182.1875 194.304688 183 192.808594 184.421875 192.355469 C 185.640625 191.96875 187.042969 192.433594 187.996094 193.273438 C 188.824219 194 189.75 195.070312 190.253906 196.101562 Z M 190.253906 196.101562 " fill-opacity="1" fill-rule="nonzero"/><path fill="#ff6c6c" d="M 127.300781 187.699219 C 127.371094 187.898438 127.636719 187.964844 127.789062 187.820312 C 128.625 187.035156 129.875 186.367188 130.90625 185.980469 C 132.09375 185.535156 133.570312 185.597656 134.574219 186.394531 C 135.742188 187.320312 135.96875 189.011719 135.46875 190.34375 C 134.96875 191.679688 133.886719 192.726562 132.769531 193.652344 C 130.480469 195.542969 127.902344 197.125 125.136719 198.335938 C 125.011719 198.390625 124.859375 198.355469 124.773438 198.246094 C 122.886719 195.894531 121.335938 193.296875 120.183594 190.558594 C 119.621094 189.21875 119.148438 187.792969 119.324219 186.378906 C 119.5 184.964844 120.484375 183.574219 121.949219 183.292969 C 123.207031 183.054688 124.542969 183.679688 125.390625 184.625 C 126.125 185.445312 126.921875 186.617188 127.300781 187.699219 Z M 127.300781 187.699219 " fill-opacity="1" fill-rule="nonzero"/><path fill="#ff6c6c" d="M 135.515625 141.484375 C 135.585938 141.683594 135.851562 141.75 136.003906 141.605469 C 136.839844 140.820312 138.089844 140.152344 139.121094 139.765625 C 140.3125 139.320312 141.785156 139.382812 142.789062 140.179688 C 143.957031 141.105469 144.183594 142.796875 143.683594 144.128906 C 143.183594 145.464844 142.101562 146.511719 140.984375 147.4375 C 138.695312 149.328125 136.117188 150.910156 133.355469 152.121094 C 133.230469 152.175781 133.078125 152.140625 132.992188 152.03125 C 131.101562 149.679688 129.550781 147.082031 128.402344 144.34375 C 127.839844 143.003906 127.363281 141.578125 127.539062 140.164062 C 127.714844 138.75 128.699219 137.359375 130.164062 137.078125 C 131.421875 136.835938 132.757812 137.464844 133.605469 138.410156 C 134.339844 139.230469 135.136719 140.402344 135.515625 141.484375 Z M 135.515625 141.484375 " fill-opacity="1" fill-rule="nonzero"/><path fill="#ff6c6c" d="M 192.71875 149.046875 C 192.789062 149.246094 193.054688 149.308594 193.207031 149.164062 C 194.042969 148.382812 195.292969 147.710938 196.324219 147.324219 C 197.515625 146.882812 198.988281 146.945312 199.992188 147.738281 C 201.160156 148.667969 201.386719 150.355469 200.886719 151.691406 C 200.386719 153.023438 199.304688 154.070312 198.1875 154.996094 C 195.898438 156.890625 193.320312 158.472656 190.558594 159.683594 C 190.433594 159.738281 190.28125 159.699219 190.195312 159.59375 C 188.304688 157.238281 186.753906 154.644531 185.605469 151.90625 C 185.042969 150.566406 184.566406 149.136719 184.742188 147.722656 C 184.917969 146.308594 185.902344 144.917969 187.367188 144.636719 C 188.625 144.398438 189.960938 145.027344 190.808594 145.96875 C 191.542969 146.789062 192.339844 147.964844 192.71875 149.046875 Z M 192.71875 149.046875 " fill-opacity="1" fill-rule="nonzero"/><path fill="#ff6c6c" d="M 246.460938 149.585938 C 246.53125 149.785156 246.796875 149.851562 246.949219 149.707031 C 247.785156 148.921875 249.035156 148.253906 250.066406 147.867188 C 251.257812 147.421875 252.730469 147.484375 253.734375 148.28125 C 254.902344 149.207031 255.128906 150.894531 254.628906 152.230469 C 254.128906 153.566406 253.046875 154.609375 251.929688 155.535156 C 249.640625 157.429688 247.0625 159.011719 244.300781 160.222656 C 244.175781 160.277344 244.023438 160.242188 243.9375 160.132812 C 242.046875 157.78125 240.496094 155.183594 239.347656 152.445312 C 238.785156 151.105469 238.308594 149.679688 238.484375 148.265625 C 238.660156 146.847656 239.644531 145.460938 241.109375 145.179688 C 242.367188 144.9375 243.703125 145.566406 244.550781 146.511719 C 245.285156 147.332031 246.082031 148.503906 246.460938 149.585938 Z M 246.460938 149.585938 " fill-opacity="1" fill-rule="nonzero"/><path fill="#ff6c6c" d="M 219.097656 108.273438 C 219.167969 108.472656 219.433594 108.539062 219.589844 108.394531 C 220.425781 107.609375 221.675781 106.941406 222.707031 106.554688 C 223.894531 106.109375 225.371094 106.171875 226.371094 106.96875 C 227.542969 107.894531 227.769531 109.582031 227.269531 110.917969 C 226.769531 112.253906 225.6875 113.296875 224.566406 114.222656 C 222.277344 116.117188 219.703125 117.699219 216.9375 118.910156 C 216.8125 118.964844 216.660156 118.929688 216.574219 118.820312 C 214.6875 116.46875 213.136719 113.871094 211.984375 111.132812 C 211.421875 109.792969 210.949219 108.367188 211.125 106.953125 C 211.300781 105.535156 212.28125 104.148438 213.75 103.867188 C 215.003906 103.625 216.339844 104.253906 217.1875 105.199219 C 217.925781 106.019531 218.722656 107.191406 219.097656 108.273438 Z M 219.097656 108.273438 " fill-opacity="1" fill-rule="nonzero"/><g clip-path="url(#1ff71d1936)"><path fill="#3c2415" d="M 180.578125 71.605469 C 180.402344 59.171875 186.078125 46.785156 195.605469 38.796875 C 196.371094 38.15625 197.269531 37.503906 198.265625 37.585938 C 199.824219 37.71875 200.679688 39.644531 200.3125 41.164062 C 199.945312 42.679688 198.773438 43.847656 197.6875 44.96875 C 190.171875 52.726562 184.449219 62.214844 181.101562 72.484375 C 181.03125 71.914062 180.964844 71.34375 180.894531 70.769531 " fill-opacity="1" fill-rule="nonzero"/></g><path fill="#ff6c6c" d="M 164.625 67.011719 C 159.734375 70.742188 156.957031 76.828125 156.808594 82.976562 C 156.609375 91.316406 160.703125 99.648438 167.425781 104.589844 C 170.019531 106.496094 173.140625 107.945312 176.351562 107.707031 C 177.703125 107.609375 179.042969 107.210938 180.394531 107.335938 C 181.867188 107.472656 183.207031 108.214844 184.625 108.644531 C 189.300781 110.0625 194.53125 107.816406 197.714844 104.109375 C 200.898438 100.402344 202.339844 95.496094 203.023438 90.660156 C 203.683594 85.996094 203.703125 81.136719 202.15625 76.6875 C 199.09375 67.890625 192.644531 66.996094 182.222656 68.785156 C 180.125 69.144531 172.625 60.914062 164.625 67.011719 Z M 164.625 67.011719 " fill-opacity="1" fill-rule="nonzero"/></svg>