<svg xmlns="http://www.w3.org/2000/svg" xmlns:xlink="http://www.w3.org/1999/xlink" width="500" zoomAndPan="magnify" viewBox="0 0 375 374.999991" height="500" preserveAspectRatio="xMidYMid meet" version="1.0"><defs><clipPath id="988caea220"><path d="M 42 63.5625 L 333 63.5625 L 333 311.8125 L 42 311.8125 Z M 42 63.5625 " clip-rule="nonzero"/></clipPath></defs><rect x="-37.5" width="450" fill="#ffffff" y="-37.499999" height="449.999989" fill-opacity="1"/><rect x="-37.5" width="450" fill="#ffffff" y="-37.499999" height="449.999989" fill-opacity="1"/><g clip-path="url(#988caea220)"><path fill="#ff7da8" d="M 190.335938 311.851562 C 181.921875 311.851562 173.738281 309.371094 167.058594 304.835938 C 164.566406 304.589844 162.121094 304.304688 159.753906 303.988281 C 155.234375 306.371094 150.289062 307.726562 145.304688 307.929688 C 144.832031 307.949219 144.371094 307.960938 143.90625 307.960938 C 132.578125 307.960938 122.230469 302.371094 116.105469 293.320312 C 111.742188 294.398438 107.109375 294.597656 102.5625 293.871094 C 87.65625 291.496094 76.402344 279.683594 74.394531 265.503906 C 69.394531 264.941406 64.46875 263.285156 59.96875 260.632812 C 44.378906 251.464844 37.863281 232.964844 45.457031 219.402344 C 48.789062 213.445312 54.457031 209.214844 61.324219 207.34375 C 61.230469 206.648438 61.144531 205.941406 61.0625 205.222656 C 57.339844 171.480469 69.425781 136.234375 94.214844 108.511719 C 119.757812 79.945312 154.421875 63.5625 189.308594 63.5625 C 222.652344 63.5625 256.5 79.875 282.160156 108.320312 C 307.613281 136.53125 320.84375 172.730469 317.558594 205.152344 C 317.445312 206.285156 317.3125 207.390625 317.164062 208.476562 C 322.523438 210.703125 326.910156 214.488281 329.664062 219.394531 C 337.261719 232.964844 330.746094 251.464844 315.148438 260.640625 C 310.636719 263.292969 305.714844 264.945312 300.722656 265.511719 C 298.75 279.683594 287.503906 291.492188 272.554688 293.875 C 268.476562 294.523438 264.261719 294.394531 260.132812 293.480469 C 253.710938 302.875 242.832031 308.414062 231.015625 307.933594 C 226.15625 307.726562 221.476562 306.484375 217.0625 304.238281 C 216.042969 304.371094 215.023438 304.5 213.992188 304.625 C 207.246094 309.296875 198.929688 311.851562 190.335938 311.851562 Z M 158.371094 289.851562 C 158.707031 289.851562 159.046875 289.878906 159.382812 289.925781 C 162.800781 290.433594 166.433594 290.859375 170.183594 291.195312 C 171.484375 291.308594 172.726562 291.792969 173.765625 292.585938 C 178.328125 296.066406 184.210938 297.980469 190.332031 297.980469 C 196.582031 297.980469 202.554688 296.011719 207.148438 292.445312 C 208.175781 291.652344 209.398438 291.160156 210.6875 291.027344 C 212.996094 290.789062 215.238281 290.488281 217.480469 290.183594 C 219.03125 289.980469 220.609375 290.300781 221.953125 291.105469 C 225.011719 292.929688 228.25 293.929688 231.585938 294.070312 C 231.847656 294.082031 232.128906 294.085938 232.40625 294.085938 C 239.882812 294.085938 246.605469 290.050781 249.945312 283.558594 C 250.652344 282.183594 251.800781 281.082031 253.203125 280.4375 C 253.480469 280.308594 253.746094 280.167969 254.007812 280.03125 C 254.40625 279.824219 254.804688 279.621094 255.207031 279.429688 C 256.859375 278.652344 258.746094 278.558594 260.46875 279.167969 C 263.789062 280.34375 267.144531 280.683594 270.378906 280.171875 C 280.714844 278.523438 288.054688 269.351562 287.097656 259.285156 C 286.898438 257.203125 287.648438 255.144531 289.136719 253.679688 C 290.625 252.214844 292.691406 251.492188 294.769531 251.734375 C 299.171875 252.230469 303.9375 251.144531 308.140625 248.675781 C 317.125 243.386719 321.449219 233.089844 317.589844 226.183594 C 315.828125 223.050781 312.539062 220.964844 308.332031 220.316406 C 306.503906 220.03125 304.863281 219.03125 303.777344 217.53125 C 302.691406 216.03125 302.25 214.160156 302.550781 212.332031 C 303.042969 209.351562 303.492188 206.625 303.777344 203.765625 C 306.675781 175.167969 294.753906 142.96875 271.882812 117.621094 C 248.84375 92.082031 218.742188 77.433594 189.308594 77.433594 C 158.808594 77.433594 127.117188 92.511719 104.535156 117.765625 C 82.367188 142.550781 71.539062 173.871094 74.828125 203.691406 C 75.113281 206.246094 75.527344 208.6875 75.964844 211.265625 L 76.097656 212.042969 C 76.4375 214.046875 75.882812 216.09375 74.585938 217.652344 C 73.285156 219.207031 71.371094 220.117188 69.34375 220.140625 C 63.957031 220.199219 59.65625 222.402344 57.539062 226.183594 C 53.675781 233.089844 58.003906 243.390625 66.988281 248.675781 C 71.167969 251.140625 75.921875 252.21875 80.347656 251.734375 C 82.4375 251.511719 84.472656 252.21875 85.957031 253.679688 C 87.441406 255.136719 88.191406 257.1875 88.003906 259.261719 C 87.082031 269.347656 94.4375 278.535156 104.746094 280.175781 C 108.71875 280.8125 112.683594 280.273438 116.28125 278.628906 C 118.183594 277.757812 120.378906 277.792969 122.253906 278.734375 L 122.195312 278.710938 C 123.828125 279.410156 125.132812 280.714844 125.832031 282.351562 C 128.996094 289.730469 136.445312 294.429688 144.742188 294.074219 C 148.230469 293.929688 151.578125 292.867188 154.699219 290.910156 C 155.804688 290.214844 157.078125 289.851562 158.371094 289.851562 Z M 158.371094 289.851562 " fill-opacity="1" fill-rule="nonzero"/></g><path fill="#ff7da8" d="M 184.101562 278.445312 C 168.851562 278.445312 155.144531 276.257812 143.425781 273.195312 C 102.640625 262.546875 77.277344 239.757812 76.21875 238.792969 C 73.386719 236.214844 73.179688 231.828125 75.75 228.996094 C 78.324219 226.160156 82.703125 225.953125 85.53125 228.527344 C 86.03125 228.972656 110.035156 250.289062 147.492188 259.921875 C 197.613281 272.804688 247.101562 259.742188 294.585938 221.097656 C 297.550781 218.679688 301.910156 219.132812 304.328125 222.105469 C 306.742188 225.078125 306.289062 229.445312 303.320312 231.863281 C 259.304688 267.691406 217.914062 278.445312 184.101562 278.445312 Z M 184.101562 278.445312 " fill-opacity="1" fill-rule="nonzero"/><path fill="#ffc3c9" d="M 323.628906 222.792969 C 320.691406 217.566406 315.445312 214.394531 309.382812 213.460938 C 309.871094 210.507812 310.359375 207.566406 310.667969 204.453125 C 317.132812 140.675781 256.347656 70.5 189.308594 70.5 C 122.296875 70.5 60.371094 135.78125 67.945312 204.453125 C 68.285156 207.488281 68.785156 210.332031 69.273438 213.203125 C 61.738281 213.285156 54.972656 216.578125 51.5 222.792969 C 45.738281 233.089844 51.09375 247.371094 63.484375 254.65625 C 69.234375 258.042969 75.46875 259.25 81.109375 258.628906 C 79.863281 272.269531 89.617188 284.789062 103.660156 287.023438 C 109.164062 287.902344 114.503906 287.0625 119.160156 284.9375 C 119.269531 284.988281 119.375 285.046875 119.46875 285.085938 C 123.636719 294.8125 133.605469 301.464844 145.023438 301.003906 C 149.972656 300.800781 154.503906 299.214844 158.371094 296.789062 C 162.023438 297.332031 165.757812 297.765625 169.574219 298.105469 C 175.082031 302.304688 182.316406 304.917969 190.335938 304.917969 C 198.496094 304.917969 205.851562 302.234375 211.398438 297.929688 C 213.78125 297.683594 216.09375 297.375 218.40625 297.0625 C 222.191406 299.324219 226.535156 300.800781 231.296875 301.003906 C 242.078125 301.433594 251.574219 295.542969 256.105469 286.738281 C 256.808594 286.414062 257.46875 286.035156 258.160156 285.710938 C 262.285156 287.171875 266.804688 287.765625 271.46875 287.023438 C 285.511719 284.785156 295.289062 272.269531 293.992188 258.625 C 299.632812 259.265625 305.882812 258.042969 311.644531 254.65625 C 324.035156 247.371094 329.390625 233.089844 323.628906 222.792969 Z M 323.628906 222.792969 " fill-opacity="1" fill-rule="nonzero"/><path fill="#ff7da8" d="M 184.074219 275.863281 C 169.074219 275.863281 155.597656 273.710938 144.078125 270.703125 C 103.898438 260.210938 78.988281 237.835938 77.949219 236.886719 C 76.167969 235.265625 76.039062 232.507812 77.65625 230.726562 C 79.277344 228.941406 82.03125 228.8125 83.808594 230.433594 C 84.195312 230.78125 108.539062 252.503906 146.636719 262.359375 C 197.664062 275.554688 247.984375 262.34375 296.210938 223.09375 C 298.078125 221.574219 300.820312 221.863281 302.335938 223.730469 C 303.855469 225.597656 303.570312 228.347656 301.703125 229.867188 C 258.226562 265.25 217.398438 275.863281 184.074219 275.863281 Z M 184.074219 275.863281 " fill-opacity="0.5" fill-rule="nonzero"/><path fill="#ffa9bb" d="M 112.191406 156.164062 C 112.191406 158.113281 109.648438 169.859375 112.191406 171.152344 C 114.734375 172.453125 124.257812 163.320312 124.894531 163.652344 C 125.53125 163.980469 129.34375 156.164062 129.34375 156.164062 L 119.074219 151.597656 Z M 112.191406 156.164062 " fill-opacity="1" fill-rule="nonzero"/><path fill="#ff4d59" d="M 220.199219 156.867188 C 222.054688 156.34375 233.785156 155.757812 234.324219 152.890625 C 234.863281 150.03125 223.757812 143.035156 223.894531 142.3125 C 224.042969 141.601562 215.65625 139.894531 215.65625 139.894531 L 214.101562 151.269531 Z M 220.199219 156.867188 " fill-opacity="1" fill-rule="nonzero"/><path fill="#ffa9bb" d="M 153.230469 124.367188 C 153.230469 124.367188 152.960938 130.242188 158.316406 132.851562 C 163.660156 135.457031 166.164062 138.710938 171.589844 137.410156 C 177.039062 136.101562 180.867188 137.050781 180.214844 131.035156 C 179.582031 125.03125 179.582031 125.03125 179.582031 125.03125 C 179.582031 125.03125 172.492188 121.761719 171.589844 121.761719 C 170.679688 121.761719 153.230469 124.367188 153.230469 124.367188 Z M 153.230469 124.367188 " fill-opacity="1" fill-rule="nonzero"/><path fill="#ffa9bb" d="M 157.332031 171.289062 C 160.511719 175.714844 166.757812 180.269531 166.757812 180.269531 L 166.757812 175.78125 C 166.757812 175.78125 167.9375 167.246094 166.757812 167.246094 C 165.609375 167.246094 157.332031 171.289062 157.332031 171.289062 Z M 157.332031 171.289062 " fill-opacity="1" fill-rule="nonzero"/><path fill="#ffa9bb" d="M 235.027344 184.992188 C 239.734375 182.355469 244.984375 176.613281 244.984375 176.613281 L 240.628906 176.007812 C 240.628906 176.007812 232.511719 173.699219 232.375 174.878906 C 232.226562 176.058594 235.027344 184.992188 235.027344 184.992188 Z M 235.027344 184.992188 " fill-opacity="1" fill-rule="nonzero"/><path fill="#ffa9bb" d="M 171.453125 235.5 C 176.753906 236.4375 184.34375 235.3125 184.34375 235.3125 L 181.3125 232.0625 C 181.3125 232.0625 176.386719 225.070312 175.550781 225.882812 C 174.6875 226.722656 171.453125 235.5 171.453125 235.5 Z M 171.453125 235.5 " fill-opacity="1" fill-rule="nonzero"/><path fill="#ff4d59" d="M 173.859375 96.292969 C 179.136719 97.234375 186.734375 96.097656 186.734375 96.097656 L 183.71875 92.851562 C 183.71875 92.851562 178.769531 85.863281 177.917969 86.679688 C 177.078125 87.503906 173.859375 96.292969 173.859375 96.292969 Z M 173.859375 96.292969 " fill-opacity="1" fill-rule="nonzero"/><path fill="#ffa9bb" d="M 272.375 211.335938 C 277.675781 212.257812 285.253906 211.117188 285.253906 211.117188 L 282.234375 207.878906 C 282.234375 207.878906 277.300781 200.890625 276.460938 201.714844 C 275.621094 202.527344 272.375 211.335938 272.375 211.335938 Z M 272.375 211.335938 " fill-opacity="1" fill-rule="nonzero"/><path fill="#ffa9bb" d="M 90.480469 184.421875 C 95.769531 185.359375 103.332031 184.226562 103.332031 184.226562 L 100.316406 180.976562 C 100.316406 180.976562 95.40625 173.992188 94.554688 174.8125 C 93.714844 175.636719 90.480469 184.421875 90.480469 184.421875 Z M 90.480469 184.421875 " fill-opacity="1" fill-rule="nonzero"/><path fill="#ff4d59" d="M 269.289062 164.636719 L 274.957031 180.269531 C 274.957031 180.269531 266.691406 202.609375 278.121094 186.554688 C 289.59375 170.492188 288.320312 167.242188 288.320312 167.242188 L 278.8125 164.636719 Z M 269.289062 164.636719 " fill-opacity="1" fill-rule="nonzero"/><path fill="#ff4d59" d="M 126.246094 134.046875 L 133.265625 118.996094 C 133.265625 118.996094 154.707031 109.601562 135.46875 112.304688 C 116.25 115.007812 114.855469 118.199219 114.855469 118.199219 L 119.617188 127.019531 Z M 126.246094 134.046875 " fill-opacity="1" fill-rule="nonzero"/><path fill="#ff4d59" d="M 116.601562 201.648438 C 122.109375 201.648438 129.816406 204.234375 133.902344 206.210938 C 138 208.164062 141.734375 210.046875 141.734375 210.046875 C 141.734375 210.046875 129.882812 218.59375 129.167969 217.292969 C 128.464844 215.996094 123.363281 210.046875 123.363281 210.046875 Z M 116.601562 201.648438 " fill-opacity="1" fill-rule="nonzero"/><path fill="#ffa9bb" d="M 242.644531 117.390625 C 241.277344 117.703125 236.839844 120 238.410156 123.910156 C 239.976562 127.808594 246.039062 132.375 247.605469 132.375 C 249.21875 132.375 247.308594 133.351562 253.019531 132.375 C 258.753906 131.398438 262.269531 127.492188 262.269531 127.492188 C 262.269531 127.492188 258.441406 121.582031 254.613281 121.761719 C 250.800781 121.941406 247.605469 121.761719 247.605469 121.761719 Z M 242.644531 117.390625 " fill-opacity="1" fill-rule="nonzero"/><path fill="#ffa9bb" d="M 195.542969 211.386719 C 196.921875 211.308594 201.671875 209.855469 200.777344 205.726562 C 199.886719 201.578125 194.730469 196.03125 193.136719 195.753906 C 191.566406 195.460938 193.609375 194.839844 187.820312 194.792969 C 181.992188 194.738281 177.90625 197.984375 177.90625 197.984375 C 177.90625 197.984375 180.652344 204.453125 184.4375 204.953125 C 188.253906 205.453125 191.351562 206.1875 191.351562 206.1875 Z M 195.542969 211.386719 " fill-opacity="1" fill-rule="nonzero"/><path fill="#ffa9bb" d="M 203.753906 94.246094 C 203.753906 94.246094 201.195312 98.480469 203.753906 100.105469 C 206.296875 101.742188 206.285156 105.648438 212.332031 102.070312 C 218.375 98.488281 221.570312 100.761719 218.375 97.179688 C 215.183594 93.605469 217.726562 91.636719 212.980469 91.636719 C 208.203125 91.640625 203.753906 94.246094 203.753906 94.246094 Z M 203.753906 94.246094 " fill-opacity="1" fill-rule="nonzero"/><path fill="#ff4d59" d="M 226.640625 203.097656 L 223.058594 213.515625 C 223.058594 213.515625 224.097656 221.332031 230.46875 217.429688 C 236.839844 213.515625 238.058594 215.25 238.082031 210.792969 C 238.097656 206.347656 226.640625 203.097656 226.640625 203.097656 Z M 226.640625 203.097656 " fill-opacity="1" fill-rule="nonzero"/></svg>