<svg xmlns="http://www.w3.org/2000/svg" xmlns:xlink="http://www.w3.org/1999/xlink" width="500" zoomAndPan="magnify" viewBox="0 0 375 374.999991" height="500" preserveAspectRatio="xMidYMid meet" version="1.0"><defs><clipPath id="56a7000653"><path d="M 101.316406 40 L 203 40 L 203 146 L 101.316406 146 Z M 101.316406 40 " clip-rule="nonzero"/></clipPath></defs><rect x="-37.5" width="450" fill="#ffffff" y="-37.499999" height="449.999989" fill-opacity="1"/><rect x="-37.5" width="450" fill="#ffffff" y="-37.499999" height="449.999989" fill-opacity="1"/><path fill="#96b783" d="M 156.136719 140.4375 C 156.035156 140.445312 155.9375 140.449219 155.835938 140.457031 C 155.925781 140.441406 156.011719 140.421875 156.101562 140.402344 C 156.113281 140.414062 156.125 140.425781 156.136719 140.4375 Z M 270.40625 156.660156 C 266.898438 160.84375 265.488281 166.25 264.371094 171.480469 C 263.214844 176.882812 262.3125 182.433594 260.117188 187.542969 C 257.945312 192.582031 254.394531 196.984375 250.125 200.40625 C 245.878906 203.808594 240.785156 206.304688 235.476562 207.523438 C 232.855469 208.128906 230.167969 208.464844 227.472656 208.441406 C 225.347656 208.421875 222.429688 208.4375 221.3125 206.371094 C 219.433594 208.261719 217.703125 210.28125 216.074219 212.050781 C 211.304688 217.230469 206.839844 222.671875 202.683594 228.339844 C 202.589844 228.539062 202.445312 228.722656 202.273438 228.890625 C 200.777344 230.945312 199.332031 233.03125 197.917969 235.144531 C 202.433594 232.617188 207.320312 230.710938 212.355469 229.542969 C 217.972656 228.238281 224.308594 227.355469 229.878906 229.3125 C 234.738281 231.019531 238.609375 235.339844 238.363281 240.671875 C 238.324219 241.523438 237.460938 242.398438 236.707031 242.691406 C 229.125 245.632812 221.097656 247.066406 212.980469 245.960938 C 208.941406 245.410156 204.828125 244.230469 200.726562 244.703125 C 196.84375 245.148438 193.316406 247.238281 189.957031 249.097656 C 189.730469 249.222656 189.503906 249.316406 189.277344 249.386719 C 185.527344 256.214844 182.183594 263.265625 179.292969 270.511719 C 179.273438 270.558594 179.25 270.605469 179.222656 270.652344 C 177.09375 291.945312 173.910156 313.132812 169.703125 334.117188 C 169.164062 336.804688 163.148438 337.492188 163.742188 334.535156 C 166.476562 320.910156 168.777344 307.203125 170.636719 293.433594 C 169.644531 293.28125 168.851562 292.742188 168.820312 291.683594 C 168.40625 277.449219 162.089844 263.648438 155.441406 251.3125 C 155.273438 251 155.09375 250.695312 154.925781 250.382812 C 154.847656 250.382812 154.761719 250.386719 154.6875 250.378906 C 141.789062 249.277344 131.261719 241.570312 124.816406 230.570312 C 117.78125 218.558594 116.019531 204.613281 114.710938 191 C 114.507812 188.875 117.820312 188.078125 119.40625 188.46875 C 130.523438 191.207031 140.695312 197.652344 147.667969 206.761719 C 155.152344 216.542969 158.640625 228.917969 157.703125 241.160156 C 157.671875 241.5625 157.453125 241.925781 157.117188 242.238281 C 158.640625 244.800781 160.109375 247.402344 161.503906 250.039062 C 166.015625 258.582031 170.226562 267.570312 172.648438 276.96875 C 174.980469 255.621094 176.261719 234.152344 176.441406 212.679688 C 176.566406 197.453125 175.964844 181.585938 171.792969 166.828125 C 170.308594 169.335938 168.167969 171.445312 165.523438 172.898438 C 164.792969 173.300781 160.847656 174.957031 160.347656 173.640625 C 158.113281 167.757812 157.449219 161.433594 158.289062 155.292969 C 157.027344 157.125 155.523438 158.746094 153.621094 160.09375 C 147.339844 164.550781 138.476562 166.238281 131.195312 163.480469 C 130.8125 163.332031 131.175781 162.863281 131.316406 162.742188 C 136.980469 158.082031 139.9375 151.121094 145.261719 146.152344 C 145.546875 145.886719 145.84375 145.625 146.144531 145.367188 C 150.085938 145.835938 154.085938 145.675781 157.953125 144.882812 C 157.734375 145.097656 157.492188 145.277344 157.316406 145.378906 C 156.722656 145.714844 156.03125 145.96875 155.320312 146.09375 C 155.390625 146.515625 154.96875 146.933594 154.695312 147.160156 C 154.117188 147.632812 153.550781 148.117188 152.988281 148.609375 C 153.632812 148.660156 155.042969 149.167969 154.15625 150.027344 C 152.222656 151.894531 150.289062 153.761719 148.355469 155.632812 C 147.34375 156.660156 146.34375 157.695312 145.359375 158.75 C 145.070312 159.0625 144.71875 159.316406 144.339844 159.527344 C 143.941406 159.910156 143.546875 160.296875 143.140625 160.667969 C 142.3125 161.425781 141.207031 162.019531 140.039062 162.316406 C 140.027344 162.320312 140.015625 162.324219 140.003906 162.328125 C 145.007812 162.96875 149.703125 160.710938 152.683594 156.199219 C 155.371094 152.132812 156.691406 147.402344 160.269531 144.335938 C 162.0625 143.839844 163.816406 143.203125 165.511719 142.421875 C 168.09375 143.070312 170.769531 143.203125 173.398438 142.890625 C 176.613281 143.269531 179.75 141.96875 182.875 140.507812 C 187.328125 138.425781 191.734375 136.582031 196.644531 135.929688 C 197.03125 135.878906 198.09375 135.765625 198.296875 136.273438 C 201.503906 144.191406 195.378906 152.109375 188.105469 154.78125 C 183.421875 156.503906 178.558594 156.558594 174.132812 155.160156 C 177.515625 163.296875 179.609375 171.933594 180.800781 180.707031 C 182.367188 192.253906 182.527344 203.941406 182.363281 215.574219 C 182.175781 228.75 181.582031 241.921875 180.59375 255.0625 C 180.578125 255.261719 180.558594 255.457031 180.542969 255.65625 C 181.164062 254.433594 181.78125 253.214844 182.425781 252.007812 C 186.644531 244.109375 191.398438 236.5 196.65625 229.257812 C 196.265625 228.671875 196.390625 228.050781 196.511719 227.394531 C 196.328125 227.402344 196.148438 227.398438 195.976562 227.382812 C 194.957031 227.28125 193.539062 226.542969 194.296875 225.324219 C 194.664062 224.730469 195.03125 224.132812 195.394531 223.535156 C 195.308594 223.417969 195.226562 223.300781 195.140625 223.1875 C 193.441406 220.9375 191.765625 218.84375 190.554688 216.269531 C 187.980469 210.816406 187.40625 204.65625 187.757812 198.699219 C 188.132812 192.390625 189.296875 185.933594 190.9375 179.828125 C 192.300781 174.738281 194.4375 169.859375 198.320312 166.191406 C 199.144531 165.414062 203.480469 163.828125 203.660156 166.058594 C 204.082031 171.277344 206.832031 175.714844 208.808594 180.441406 C 210.824219 185.253906 211.546875 190.441406 211.25 195.636719 C 210.699219 205.320312 206.609375 214.28125 201.734375 222.546875 C 201.738281 222.554688 201.742188 222.558594 201.746094 222.566406 C 202.09375 222.132812 202.433594 221.6875 202.785156 221.253906 C 206.683594 216.441406 210.816406 211.808594 215.171875 207.402344 C 216.566406 205.992188 217.988281 204.644531 219.480469 203.402344 C 219.855469 195.980469 221.089844 188.625 223.265625 181.511719 C 225.261719 174.992188 228.496094 168.933594 233.925781 164.648438 C 242.632812 157.777344 254.171875 156.332031 263.75 151.082031 C 265.8125 149.953125 268.734375 148.96875 270.945312 150.277344 C 273.769531 151.949219 271.941406 154.828125 270.40625 156.660156 Z M 194.40625 191.117188 C 194.0625 193.441406 193.804688 195.769531 193.667969 198.089844 C 193.574219 199.699219 193.5625 201.320312 193.644531 202.9375 C 193.699219 198.988281 193.953125 195.042969 194.40625 191.117188 Z M 185.628906 141.457031 C 186.003906 141.480469 186.378906 141.519531 186.75 141.585938 C 187.613281 141.742188 188.347656 142.207031 188.617188 142.902344 C 189.28125 142.90625 189.988281 143.03125 190.515625 143.40625 C 190.726562 142.976562 190.914062 142.542969 191.066406 142.097656 C 191.355469 141.25 192.207031 140.71875 193.097656 140.410156 C 193.003906 139.757812 192.851562 139.117188 192.644531 138.488281 C 190.632812 139.019531 188.707031 140.023438 186.851562 140.890625 C 186.445312 141.082031 186.035156 141.269531 185.628906 141.457031 Z M 181.9375 147.007812 Z M 180.476562 153.523438 C 181.816406 153.863281 183.246094 154.050781 184.582031 153.890625 C 184.546875 153.875 184.511719 153.863281 184.480469 153.847656 C 183.773438 153.464844 183.457031 152.847656 183.492188 152.195312 C 183.320312 152.230469 183.148438 152.273438 182.976562 152.308594 C 182.871094 152.414062 182.761719 152.515625 182.636719 152.613281 C 182.046875 153.066406 181.273438 153.378906 180.476562 153.523438 Z M 175.425781 144.949219 C 175.875 145.09375 176.320312 145.25 176.761719 145.417969 C 177.03125 145.078125 177.324219 144.753906 177.636719 144.453125 C 176.90625 144.640625 176.167969 144.808594 175.425781 144.949219 Z M 165.59375 168.613281 C 165.425781 168.65625 165.273438 168.691406 165.136719 168.714844 C 165.171875 168.84375 165.210938 168.96875 165.246094 169.09375 C 165.363281 168.9375 165.480469 168.777344 165.59375 168.613281 Z M 122.179688 194 C 121.789062 193.839844 121.390625 193.695312 120.996094 193.546875 C 121.019531 193.78125 121.042969 194.015625 121.066406 194.25 C 121.4375 194.144531 121.816406 194.058594 122.179688 194 Z M 146.316406 221.726562 C 145.980469 222.132812 145.023438 222.691406 143.96875 223.082031 C 146.679688 226.53125 149.261719 230.078125 151.710938 233.710938 C 150.769531 223.875 146.765625 214.675781 140.535156 207.320312 C 141.667969 209.289062 142.738281 211.296875 143.722656 213.347656 C 144.195312 214.335938 144.78125 215.414062 145.160156 216.527344 C 146.265625 218.128906 147.542969 220.242188 146.316406 221.726562 Z M 152.421875 245.953125 C 152.289062 245.730469 152.15625 245.511719 152.027344 245.289062 C 151.792969 245.414062 151.539062 245.535156 151.269531 245.644531 C 151.648438 245.753906 152.03125 245.859375 152.421875 245.953125 Z M 230.636719 240.214844 C 231.203125 240.046875 231.761719 239.871094 232.316406 239.679688 C 232.285156 239.480469 232.242188 239.28125 232.1875 239.085938 C 231.742188 239.535156 231.207031 239.910156 230.636719 240.214844 Z M 224.847656 233.164062 C 225.042969 233.367188 225.195312 233.617188 225.273438 233.933594 C 225.359375 234.273438 225.335938 234.601562 225.242188 234.90625 C 225.328125 234.902344 225.417969 234.902344 225.503906 234.898438 C 225.496094 234.773438 225.484375 234.652344 225.476562 234.53125 C 225.4375 234.042969 225.558594 233.585938 225.785156 233.179688 C 225.535156 233.109375 225.289062 233.046875 225.039062 232.996094 C 224.976562 233.054688 224.910156 233.109375 224.847656 233.164062 Z M 210.054688 240.742188 C 210.207031 240.765625 210.355469 240.785156 210.503906 240.8125 C 211.1875 240.921875 211.863281 241.03125 212.535156 241.136719 C 212.554688 241.023438 212.574219 240.914062 212.609375 240.808594 C 211.894531 240.910156 211.109375 240.894531 210.472656 240.59375 C 210.335938 240.644531 210.195312 240.691406 210.054688 240.742188 Z M 197.894531 240.40625 C 197.574219 240.625 197.253906 240.84375 196.9375 241.066406 C 197.417969 240.925781 197.90625 240.804688 198.394531 240.695312 C 198.523438 240.605469 198.652344 240.523438 198.785156 240.453125 C 198.800781 240.445312 198.820312 240.4375 198.839844 240.425781 C 198.734375 240.269531 198.664062 240.105469 198.621094 239.941406 C 198.378906 240.097656 198.132812 240.25 197.894531 240.40625 Z M 202.03125 181.164062 C 201.542969 192.09375 201.050781 203.019531 200.5625 213.949219 C 203.144531 208.359375 204.996094 202.484375 205.339844 196.242188 C 205.632812 190.984375 204.65625 185.898438 202.535156 181.085938 C 202.367188 180.703125 202.191406 180.320312 202.015625 179.9375 C 201.976562 180.125 201.9375 180.308594 201.898438 180.496094 C 201.988281 180.6875 202.042969 180.902344 202.03125 181.164062 Z M 225.90625 197.113281 C 226.050781 196.875 226.207031 196.640625 226.355469 196.40625 C 226.175781 196.070312 226.148438 195.679688 226.433594 195.269531 C 226.332031 195.28125 226.230469 195.289062 226.128906 195.292969 C 226.046875 195.898438 225.972656 196.507812 225.90625 197.113281 Z M 228.085938 201.835938 C 227.902344 201.8125 227.722656 201.78125 227.546875 201.722656 C 227.449219 201.691406 227.347656 201.648438 227.246094 201.597656 C 226.628906 201.949219 226.027344 202.335938 225.441406 202.761719 C 225.441406 202.796875 225.4375 202.835938 225.4375 202.875 C 225.464844 202.882812 225.496094 202.886719 225.527344 202.894531 C 225.695312 202.789062 225.878906 202.691406 226.082031 202.617188 C 226.757812 202.371094 227.421875 202.109375 228.085938 201.835938 Z M 245.714844 162.929688 C 245.96875 163.085938 246.171875 163.285156 246.289062 163.527344 C 246.882812 162.988281 247.492188 162.46875 248.109375 161.960938 C 247.304688 162.269531 246.503906 162.589844 245.714844 162.929688 Z M 246.019531 188.3125 C 245.515625 188.015625 245.277344 187.507812 245.53125 186.761719 C 244.222656 188.007812 242.890625 189.226562 241.539062 190.425781 C 242.484375 189.957031 243.640625 189.679688 244.65625 189.988281 C 245.125 189.441406 245.578125 188.878906 246.019531 188.3125 Z M 251.753906 173.410156 C 250.265625 175.40625 248.703125 177.335938 247.066406 179.199219 C 247.378906 179.699219 247.257812 180.34375 246.753906 180.988281 C 245.964844 182.003906 245.148438 182.992188 244.316406 183.964844 C 244.6875 183.988281 245.046875 184.0625 245.355469 184.207031 C 245.832031 184.421875 246.121094 184.769531 246.222656 185.15625 C 247.945312 181.183594 249.789062 177.269531 251.753906 173.410156 Z M 255.832031 165.191406 C 255.0625 165.96875 254.300781 166.753906 253.546875 167.546875 C 253.859375 167.660156 254.164062 167.835938 254.390625 168.058594 C 254.867188 167.101562 255.347656 166.144531 255.832031 165.191406 Z M 265.15625 155.269531 C 264.824219 155.445312 264.492188 155.617188 264.15625 155.785156 C 264.332031 155.804688 264.496094 155.84375 264.652344 155.894531 C 264.8125 155.679688 264.984375 155.476562 265.15625 155.269531 Z M 265.15625 155.269531 " fill-opacity="1" fill-rule="nonzero"/><path fill="#d17d84" d="M 162.652344 70.574219 C 161.539062 69.546875 160.324219 68.664062 159.058594 67.863281 C 158.910156 67.769531 158.757812 67.679688 158.605469 67.585938 C 157.5 66.910156 156.367188 66.277344 155.222656 65.660156 C 154.988281 65.535156 154.757812 65.410156 154.523438 65.285156 C 153.875 64.9375 153.226562 64.585938 152.585938 64.230469 C 149.113281 62.296875 146.289062 59.753906 143.292969 57.269531 C 143.660156 57.246094 144.015625 57.222656 144.351562 57.203125 C 146.023438 57.09375 147.691406 56.894531 149.34375 56.625 C 150.4375 56.445312 151.523438 56.230469 152.601562 55.980469 C 154.902344 55.453125 157.171875 54.769531 159.378906 53.925781 C 163.761719 52.253906 168.8125 49.914062 172.128906 46.503906 C 173.742188 44.839844 173.804688 43.335938 173.050781 42.089844 C 172.058594 40.449219 169.652344 39.257812 167.507812 38.734375 C 162.371094 37.488281 157.238281 38.847656 152.195312 39.859375 C 149.328125 40.433594 146.597656 40.59375 143.679688 40.378906 C 140.871094 40.171875 138.054688 39.902344 135.246094 40.296875 C 129.703125 41.078125 124.585938 44.207031 120.195312 47.53125 C 117.902344 49.273438 115.765625 51.207031 113.726562 53.238281 C 112.839844 54.121094 110.632812 55.734375 110.105469 57.230469 C 108.910156 58.304688 107.828125 59.503906 106.898438 60.832031 C 105.917969 62.226562 107.007812 62.980469 108.316406 63.039062 C 109.242188 63.078125 110.277344 62.765625 110.757812 62.078125 C 114.828125 56.28125 121.816406 53.355469 128.828125 54.324219 C 132.738281 54.867188 135.980469 56.78125 138.964844 59.285156 C 142.21875 62.019531 145.234375 64.746094 148.972656 66.824219 C 151.34375 68.144531 153.863281 69.335938 156.132812 70.863281 C 156.703125 71.246094 157.25 71.660156 157.785156 72.09375 C 157.960938 72.238281 158.144531 72.378906 158.316406 72.53125 C 161.699219 75.496094 162.339844 79.285156 162.824219 83.558594 C 163.320312 87.980469 164.90625 91.808594 166.921875 95.738281 C 168.679688 99.164062 170.46875 102.550781 171.40625 106.265625 C 171.929688 103.785156 172.484375 101.308594 173.160156 98.863281 C 173.222656 98.648438 173.285156 98.433594 173.347656 98.214844 C 170.964844 93.078125 168.125 88.101562 167.476562 82.3125 C 166.96875 77.753906 166.140625 73.800781 162.652344 70.574219 Z M 139.726562 54.558594 C 139.226562 54.230469 138.714844 53.925781 138.195312 53.644531 C 137.851562 53.457031 137.5 53.277344 137.144531 53.105469 C 136.746094 52.667969 136.449219 52.128906 136.308594 51.480469 C 135.835938 49.265625 137.59375 49.015625 139.320312 48.6875 C 141.011719 48.363281 142.941406 48.152344 144.53125 48.984375 C 145.390625 49.4375 145.777344 50.023438 146.800781 50.046875 C 147.753906 50.070312 148.796875 49.699219 149.71875 49.492188 C 150.324219 49.355469 152.003906 48.722656 151.769531 47.84375 C 151.527344 46.945312 149.753906 47.308594 149.183594 47.4375 C 145.84375 45.230469 141.367188 45.992188 137.664062 46.875 C 135.15625 47.476562 132.023438 48.941406 131.570312 51.285156 C 131.210938 51.21875 130.847656 51.148438 130.480469 51.097656 C 127.53125 50.691406 124.480469 50.84375 121.527344 51.488281 C 120.738281 51.660156 119.957031 51.863281 119.1875 52.109375 C 119.949219 51.390625 120.726562 50.699219 121.523438 50.019531 C 121.921875 49.679688 122.316406 49.332031 122.726562 49.003906 C 122.753906 48.984375 122.773438 48.960938 122.800781 48.941406 C 123.164062 48.652344 123.53125 48.359375 123.90625 48.074219 C 126.257812 46.265625 128.839844 44.5625 131.582031 43.460938 C 131.859375 43.351562 132.132812 43.238281 132.414062 43.140625 C 133.714844 42.683594 135.058594 42.503906 136.421875 42.46875 C 139.261719 42.390625 142.179688 42.933594 144.984375 42.914062 C 148.957031 42.886719 152.75 41.8125 156.628906 41.105469 C 156.882812 41.058594 157.144531 41.015625 157.40625 40.972656 C 160.421875 40.488281 163.777344 40.359375 166.511719 41.796875 C 166.941406 42.027344 167.359375 42.292969 167.757812 42.601562 C 168.679688 43.324219 168.957031 44.070312 168.820312 44.804688 C 168.742188 45.246094 168.511719 45.679688 168.179688 46.105469 C 166.796875 47.871094 163.65625 49.417969 162.273438 50.160156 C 160.378906 51.179688 158.292969 52.101562 156.109375 52.867188 C 154.730469 53.351562 153.308594 53.773438 151.871094 54.113281 C 149.058594 54.769531 146.183594 55.113281 143.414062 55.011719 C 142.457031 54.976562 141.511719 54.890625 140.585938 54.742188 C 140.300781 54.695312 140.011719 54.632812 139.726562 54.558594 Z M 139.726562 54.558594 " fill-opacity="1" fill-rule="nonzero"/><g clip-path="url(#56a7000653)"><path fill="#ffc8c9" d="M 121.527344 51.488281 C 121.28125 51.03125 121.257812 50.507812 121.523438 50.019531 C 121.921875 49.679688 122.316406 49.332031 122.726562 49.003906 C 122.78125 48.976562 122.824219 48.949219 122.882812 48.925781 C 123.332031 48.738281 123.785156 48.566406 124.234375 48.382812 C 124.109375 48.296875 124 48.191406 123.90625 48.074219 C 126.257812 46.265625 128.839844 44.5625 131.582031 43.460938 C 133.191406 43.105469 134.804688 42.773438 136.421875 42.46875 C 139.261719 42.390625 142.179688 42.933594 144.984375 42.914062 C 148.957031 42.886719 152.75 41.8125 156.628906 41.105469 C 156.882812 41.058594 157.144531 41.015625 157.40625 40.972656 C 157.757812 41.027344 158.101562 41.160156 158.394531 41.363281 C 158.96875 41.242188 159.539062 41.109375 160.117188 41 C 161 40.832031 162.40625 40.78125 163.113281 41.511719 C 164.125 41.261719 165.226562 41.347656 166.003906 41.832031 C 166.171875 41.8125 166.34375 41.800781 166.511719 41.796875 C 166.941406 42.027344 167.359375 42.292969 167.757812 42.601562 C 168.679688 43.324219 168.957031 44.070312 168.820312 44.804688 C 168.671875 45.007812 168.496094 45.191406 168.3125 45.335938 C 168.074219 45.519531 167.808594 45.664062 167.535156 45.785156 C 167.574219 45.964844 167.582031 46.15625 167.5625 46.347656 C 163.714844 47.917969 160.066406 49.882812 156.789062 52.335938 C 155.164062 52.964844 153.523438 53.558594 151.871094 54.113281 C 149.058594 54.769531 146.183594 55.113281 143.414062 55.011719 C 142.84375 54.15625 143.328125 53 144.148438 52.476562 C 144.347656 52.351562 144.554688 52.230469 144.757812 52.105469 C 142.570312 52.617188 140.382812 53.132812 138.195312 53.644531 C 137.851562 53.457031 137.5 53.277344 137.144531 53.105469 C 136.746094 52.667969 136.449219 52.128906 136.308594 51.480469 C 135.835938 49.265625 137.59375 49.015625 139.320312 48.6875 C 141.011719 48.363281 142.941406 48.152344 144.53125 48.984375 C 145.390625 49.4375 145.777344 50.023438 146.800781 50.046875 C 147.753906 50.070312 148.796875 49.699219 149.71875 49.492188 C 150.324219 49.355469 152.003906 48.722656 151.769531 47.84375 C 151.527344 46.945312 149.753906 47.308594 149.183594 47.4375 C 145.84375 45.230469 141.367188 45.992188 137.664062 46.875 C 135.15625 47.476562 132.023438 48.941406 131.570312 51.285156 C 131.210938 51.21875 130.847656 51.148438 130.480469 51.097656 C 127.53125 50.691406 124.480469 50.84375 121.527344 51.488281 Z M 202.523438 106.066406 C 202.300781 108.949219 201.015625 111.5 199.511719 113.917969 C 197.9375 116.453125 196.164062 118.867188 195.023438 121.644531 C 193.785156 124.65625 193.136719 127.890625 191.597656 130.777344 C 188.035156 137.460938 180.898438 141.996094 173.398438 142.890625 C 170.769531 143.203125 168.09375 143.070312 165.511719 142.421875 C 163.816406 143.203125 162.0625 143.839844 160.269531 144.335938 C 159.503906 144.546875 158.730469 144.726562 157.953125 144.882812 C 154.085938 145.675781 150.085938 145.835938 146.144531 145.367188 C 145.628906 145.308594 145.117188 145.238281 144.605469 145.15625 C 138.175781 144.128906 132.09375 141.457031 126.753906 137.773438 C 121.652344 134.253906 116.558594 129.644531 113.476562 124.207031 C 111.808594 121.265625 110.875 118.160156 110.730469 114.777344 C 110.585938 111.316406 111.199219 107.859375 110.816406 104.40625 C 110.125 98.113281 107.226562 92.085938 102.652344 87.699219 C 101.34375 86.441406 102.085938 84.925781 103.527344 84.15625 C 106.796875 82.40625 110.671875 82.636719 113.988281 84.167969 C 114.554688 84.429688 115.097656 84.730469 115.628906 85.054688 C 118.234375 86.628906 120.53125 88.753906 123.414062 89.789062 C 126.585938 90.933594 130.066406 90.902344 133.195312 92.230469 C 135.664062 93.277344 137.730469 94.980469 139.371094 97.082031 C 142.648438 101.285156 144.058594 106.582031 146.855469 111.074219 C 150.277344 116.566406 156.148438 119.460938 160.695312 123.855469 C 162.304688 125.40625 163.738281 127.203125 164.820312 129.152344 C 166.425781 126.128906 167.511719 122.742188 168.359375 119.753906 C 169.617188 115.316406 170.457031 110.777344 171.40625 106.265625 C 171.929688 103.785156 172.484375 101.308594 173.160156 98.863281 C 173.222656 98.648438 173.285156 98.433594 173.347656 98.214844 C 174.265625 95.011719 175.421875 91.792969 176.992188 88.816406 C 177 88.800781 177.007812 88.785156 177.015625 88.769531 C 178.414062 86.128906 180.132812 83.675781 182.304688 81.597656 C 183.953125 80.019531 185.808594 78.671875 187.804688 77.617188 C 191.34375 75.75 195.324219 74.796875 199.40625 75.125 C 199.738281 75.152344 200.660156 75.390625 200.367188 75.949219 C 198.59375 79.347656 197.699219 83.121094 197.839844 86.957031 C 197.972656 90.570312 199.121094 93.8125 200.484375 97.121094 C 201.664062 99.992188 202.769531 102.90625 202.523438 106.066406 Z M 139.9375 126.523438 C 140.015625 126.457031 140.066406 126.394531 140.101562 126.335938 C 140.078125 126.324219 140.050781 126.308594 140.03125 126.292969 C 140 126.347656 139.96875 126.421875 139.9375 126.523438 Z M 135.707031 119.976562 C 136.253906 121.589844 136.800781 123.207031 137.347656 124.820312 C 137.796875 124.660156 138.265625 124.539062 138.738281 124.46875 C 137.726562 122.972656 136.714844 121.472656 135.707031 119.976562 Z M 131.953125 97.480469 C 132.859375 98.867188 134.027344 100.089844 135.195312 101.277344 C 135.300781 101.386719 135.40625 101.492188 135.507812 101.601562 C 135.382812 101.398438 135.246094 101.207031 135.117188 101.007812 C 134.90625 100.695312 134.703125 100.378906 134.480469 100.074219 C 133.742188 99.066406 132.90625 98.195312 131.953125 97.480469 Z M 115.914062 91.5625 C 116.542969 92.507812 117.117188 93.472656 117.640625 94.464844 C 118.28125 94.085938 119.132812 93.824219 119.9375 93.730469 C 118.503906 93.175781 117.1875 92.40625 115.914062 91.5625 Z M 120.441406 124.425781 C 120.300781 123.964844 120.164062 123.5 120.035156 123.03125 C 119.703125 122.296875 119.375 121.566406 119.054688 120.828125 C 118.199219 118.855469 117.394531 116.859375 116.628906 114.855469 C 116.789062 116.636719 117.148438 118.394531 117.898438 120.09375 C 118.570312 121.617188 119.441406 123.058594 120.441406 124.425781 Z M 122.308594 94.449219 C 123.121094 96.199219 123.933594 97.949219 124.746094 99.699219 C 125.21875 99.496094 125.742188 99.339844 126.257812 99.242188 C 126.039062 98.796875 125.816406 98.351562 125.605469 97.902344 C 125.386719 97.4375 125.78125 96.941406 126.453125 96.535156 C 126.890625 96.269531 127.445312 96.042969 128.023438 95.886719 C 128.183594 95.84375 128.34375 95.808594 128.507812 95.777344 C 128.316406 95.71875 128.125 95.65625 127.933594 95.605469 C 127.394531 95.460938 126.847656 95.34375 126.300781 95.234375 C 124.972656 94.964844 123.625 94.75 122.304688 94.445312 C 122.304688 94.445312 122.304688 94.445312 122.308594 94.449219 Z M 134.90625 136.210938 C 134.472656 135.683594 134.089844 135.101562 133.777344 134.453125 C 133.640625 134.167969 133.816406 133.886719 134.113281 133.636719 C 133.980469 133.351562 133.851562 133.066406 133.71875 132.785156 C 133.695312 133.210938 133.652344 133.640625 133.589844 134.074219 C 133.519531 134.570312 133.074219 134.953125 132.5 135.242188 C 133.144531 135.648438 133.800781 136.035156 134.46875 136.40625 C 134.625 136.332031 134.773438 136.265625 134.90625 136.210938 Z M 166.15625 140.324219 C 159.457031 134.730469 150.480469 133.898438 143.070312 129.65625 C 142.320312 129.226562 141.613281 128.753906 140.929688 128.261719 C 141.339844 128.117188 141.769531 128.015625 142.199219 127.960938 C 141.984375 127.511719 141.796875 127.050781 141.636719 126.578125 C 141.632812 126.566406 141.632812 126.554688 141.628906 126.542969 C 141.351562 126.566406 141.089844 126.570312 140.851562 126.546875 C 140.625 126.671875 140.4375 126.765625 140.363281 126.792969 C 140.203125 126.855469 140.027344 126.914062 139.851562 126.972656 C 139.839844 127.121094 139.832031 127.273438 139.839844 127.429688 C 134.101562 122.785156 130.703125 115.84375 128.847656 108.710938 C 128.511719 107.40625 123.679688 108.664062 124.027344 110 C 126.1875 118.304688 130.484375 126.558594 138.058594 131.105469 C 144.273438 134.832031 151.738281 136.015625 157.988281 139.566406 C 157.445312 139.964844 156.789062 140.242188 156.101562 140.402344 C 156.011719 140.421875 155.925781 140.441406 155.835938 140.457031 C 155.316406 140.550781 154.789062 140.578125 154.289062 140.542969 C 152.875 140.941406 151.589844 140.886719 150.324219 140.542969 C 149.421875 140.625 148.527344 140.738281 147.632812 140.863281 C 151.421875 141.359375 155.273438 141.179688 159.007812 140.160156 C 159.917969 140.730469 160.796875 141.359375 161.640625 142.0625 C 162.746094 142.984375 167.128906 141.136719 166.15625 140.324219 Z M 166.710938 133.339844 C 166.644531 133.410156 166.582031 133.488281 166.511719 133.558594 C 166.535156 133.660156 166.546875 133.761719 166.566406 133.863281 C 166.613281 133.6875 166.664062 133.515625 166.710938 133.339844 Z M 182.148438 88.34375 C 182.671875 87.402344 183.214844 86.46875 183.777344 85.546875 C 183.417969 86.097656 183.082031 86.644531 182.777344 87.183594 C 182.558594 87.566406 182.351562 87.953125 182.148438 88.34375 Z M 175.585938 111.1875 C 175.953125 110.601562 176.335938 110.035156 176.75 109.507812 C 176.78125 109.46875 176.808594 109.421875 176.839844 109.382812 C 177.398438 108.6875 178.183594 108.089844 179.066406 107.644531 C 179.375 106.132812 179.671875 104.617188 179.964844 103.105469 C 179.261719 103.554688 178.082031 103.847656 177.066406 103.933594 C 176.949219 104.464844 176.835938 104.996094 176.726562 105.527344 C 176.621094 106.015625 176.519531 106.515625 176.417969 107.023438 C 176.144531 108.367188 175.875 109.761719 175.585938 111.1875 Z M 175.285156 137.203125 C 174.648438 137.9375 173.996094 138.660156 173.304688 139.359375 C 173.132812 139.535156 172.257812 139.910156 171.28125 140.21875 C 171.175781 140.253906 171.070312 140.285156 170.964844 140.316406 C 171.046875 140.328125 171.128906 140.339844 171.210938 140.347656 C 172.023438 140.457031 172.828125 140.488281 173.621094 140.449219 C 174.167969 139.371094 174.722656 138.289062 175.285156 137.203125 Z M 184.640625 134.019531 C 183.773438 135.046875 182.855469 136.035156 181.917969 137.003906 C 182.089844 136.855469 182.261719 136.710938 182.429688 136.554688 C 183.292969 135.757812 184.015625 134.90625 184.640625 134.019531 Z M 188.503906 101.375 C 189.007812 100.570312 186.777344 100.75 186.542969 100.785156 C 185.59375 100.933594 184.28125 101.296875 183.734375 102.167969 C 180.558594 107.242188 181.570312 113.382812 180.722656 119.03125 C 179.796875 125.195312 176 130.035156 171.367188 133.992188 C 170.5 134.734375 172.125 134.929688 172.542969 134.914062 C 173.667969 134.875 174.902344 134.460938 175.761719 133.730469 C 180.363281 129.796875 184.367188 124.847656 185.410156 118.734375 C 186.402344 112.941406 185.242188 106.585938 188.503906 101.375 Z M 189.78125 116.65625 C 189.203125 118.242188 188.570312 119.8125 187.898438 121.371094 C 188.597656 119.828125 189.222656 118.253906 189.78125 116.65625 Z M 194.617188 77.625 C 193.230469 77.726562 191.914062 78.144531 190.6875 78.792969 C 191.800781 78.542969 192.785156 78.519531 192.78125 79.101562 C 192.777344 79.636719 192.757812 80.171875 192.742188 80.707031 C 192.980469 80.601562 193.242188 80.507812 193.523438 80.421875 C 193.824219 79.46875 194.1875 78.53125 194.617188 77.625 Z M 195.101562 98.527344 C 195.027344 98.34375 194.953125 98.160156 194.878906 97.976562 C 194.839844 98.175781 194.804688 98.375 194.769531 98.574219 C 194.878906 98.554688 194.996094 98.539062 195.101562 98.527344 Z M 195.101562 98.527344 " fill-opacity="1" fill-rule="nonzero"/></g><path fill="#fcaaa4" d="M 117.640625 94.464844 C 117.117188 93.472656 116.542969 92.507812 115.914062 91.5625 C 117.1875 92.40625 118.503906 93.175781 119.9375 93.730469 C 119.132812 93.824219 118.28125 94.085938 117.640625 94.464844 Z M 119.054688 120.828125 C 118.199219 118.855469 117.394531 116.859375 116.628906 114.855469 C 116.789062 116.636719 117.148438 118.394531 117.898438 120.09375 C 118.570312 121.617188 119.441406 123.058594 120.441406 124.425781 C 120.300781 123.964844 120.164062 123.5 120.035156 123.03125 C 119.703125 122.296875 119.375 121.566406 119.054688 120.828125 Z M 134.113281 133.636719 C 133.980469 133.351562 133.851562 133.066406 133.71875 132.785156 C 133.695312 133.210938 133.652344 133.640625 133.589844 134.074219 C 133.519531 134.570312 133.074219 134.953125 132.5 135.242188 C 133.144531 135.648438 133.800781 136.035156 134.46875 136.40625 C 134.625 136.332031 134.773438 136.265625 134.90625 136.210938 C 134.472656 135.683594 134.089844 135.101562 133.777344 134.453125 C 133.640625 134.167969 133.816406 133.886719 134.113281 133.636719 Z M 168.179688 46.105469 C 167.972656 46.1875 167.765625 46.265625 167.5625 46.347656 C 163.714844 47.917969 160.066406 49.882812 156.789062 52.335938 C 156.558594 52.507812 156.335938 52.691406 156.109375 52.867188 C 158.292969 52.101562 160.378906 51.179688 162.273438 50.160156 C 163.65625 49.417969 166.796875 47.871094 168.179688 46.105469 Z M 126.257812 99.242188 C 126.039062 98.796875 125.816406 98.351562 125.605469 97.902344 C 125.386719 97.4375 125.78125 96.941406 126.453125 96.535156 C 126.410156 96.101562 126.359375 95.667969 126.300781 95.234375 C 124.972656 94.964844 123.625 94.75 122.304688 94.445312 C 122.304688 94.445312 122.304688 94.445312 122.308594 94.449219 C 123.121094 96.199219 123.933594 97.949219 124.746094 99.699219 C 125.21875 99.496094 125.742188 99.339844 126.257812 99.242188 Z M 127.933594 95.605469 C 127.964844 95.699219 127.992188 95.792969 128.023438 95.886719 C 128.183594 95.84375 128.34375 95.808594 128.507812 95.777344 C 128.316406 95.71875 128.125 95.65625 127.933594 95.605469 Z M 134.480469 100.074219 C 133.742188 99.066406 132.90625 98.195312 131.953125 97.480469 C 132.859375 98.867188 134.027344 100.089844 135.195312 101.277344 C 135.167969 101.1875 135.140625 101.097656 135.117188 101.007812 C 134.90625 100.695312 134.703125 100.378906 134.480469 100.074219 Z M 139.9375 126.523438 C 140.015625 126.457031 140.066406 126.394531 140.101562 126.335938 C 140.078125 126.324219 140.050781 126.308594 140.03125 126.292969 C 140 126.347656 139.96875 126.421875 139.9375 126.523438 Z M 135.707031 119.976562 C 136.253906 121.589844 136.800781 123.207031 137.347656 124.820312 C 137.796875 124.660156 138.265625 124.539062 138.738281 124.46875 C 137.726562 122.972656 136.714844 121.472656 135.707031 119.976562 Z M 171.40625 106.265625 C 170.457031 110.777344 169.617188 115.316406 168.359375 119.753906 C 167.511719 122.742188 166.425781 126.128906 164.820312 129.152344 C 163.738281 127.203125 162.304688 125.40625 160.695312 123.855469 C 156.148438 119.460938 150.277344 116.566406 146.855469 111.074219 C 144.058594 106.582031 142.648438 101.285156 139.371094 97.082031 C 137.730469 94.980469 135.664062 93.277344 133.195312 92.230469 C 130.066406 90.902344 126.585938 90.933594 123.414062 89.789062 C 120.53125 88.753906 118.234375 86.628906 115.628906 85.054688 C 115.871094 83.648438 116.097656 82.242188 116.292969 80.832031 C 116.804688 77.164062 117.394531 73.226562 116.453125 69.585938 C 115.820312 67.125 113.882812 64.113281 111.21875 63.347656 C 110.4375 63.441406 109.738281 63.394531 109.476562 63.171875 C 109.121094 63.175781 108.679688 63.15625 108.316406 63.039062 C 109.242188 63.078125 110.277344 62.765625 110.757812 62.078125 C 114.828125 56.28125 121.816406 53.355469 128.828125 54.324219 C 132.738281 54.867188 135.980469 56.78125 138.964844 59.285156 C 142.21875 62.019531 145.234375 64.746094 148.972656 66.824219 C 151.34375 68.144531 153.863281 69.335938 156.132812 70.863281 C 156.660156 71.382812 157.183594 71.902344 157.691406 72.425781 C 157.722656 72.316406 157.753906 72.203125 157.785156 72.09375 C 157.960938 72.238281 158.144531 72.378906 158.316406 72.53125 C 161.699219 75.496094 162.339844 79.285156 162.824219 83.558594 C 163.320312 87.980469 164.90625 91.808594 166.921875 95.738281 C 168.679688 99.164062 170.46875 102.550781 171.40625 106.265625 Z M 129.699219 60.25 C 130.394531 59.878906 131.125 59.5625 131.875 59.304688 C 130.523438 58.980469 129.164062 58.613281 127.78125 58.234375 C 123.191406 56.980469 116.578125 55.609375 114.484375 60.878906 C 115.015625 61.042969 115.53125 61.242188 116.023438 61.488281 C 115.847656 61.148438 115.675781 60.800781 115.496094 60.460938 C 115.246094 59.988281 115.707031 59.480469 116.429688 59.101562 C 115.953125 57.914062 119.214844 57.171875 119.816406 57.207031 C 123.371094 57.410156 126.78125 58.445312 129.699219 60.25 Z M 131.140625 75.117188 C 131.082031 74.480469 131.703125 73.910156 132.519531 73.53125 C 131.875 72.625 131.226562 71.726562 130.566406 70.832031 C 130.253906 70.617188 129.953125 70.394531 129.65625 70.164062 C 130.179688 72.933594 130.796875 75.683594 131.511719 78.410156 C 131.371094 77.316406 131.246094 76.21875 131.140625 75.117188 Z M 140.613281 64.03125 C 140.453125 63.300781 140.179688 62.625 139.582031 62.1875 C 138.765625 61.582031 137.503906 61.304688 136.515625 61.167969 C 135.480469 61.027344 134.515625 61.089844 133.59375 61.34375 C 135.820312 62.257812 138.046875 63.171875 140.273438 64.085938 C 140.390625 64.0625 140.5 64.046875 140.613281 64.03125 Z M 141.703125 77.78125 C 142.320312 79.144531 143.015625 80.472656 143.765625 81.773438 C 143.644531 81.101562 143.523438 80.429688 143.40625 79.757812 C 142.921875 79.671875 142.535156 79.472656 142.363281 79.113281 C 142.152344 78.664062 141.925781 78.222656 141.703125 77.78125 Z M 146.875 99.035156 C 145.917969 93.738281 144.964844 88.4375 144.011719 83.136719 C 143.773438 83.5625 143.222656 83.933594 142.585938 84.1875 C 144.015625 89.136719 145.445312 94.085938 146.875 99.035156 Z M 149.53125 72.171875 C 149.429688 71.625 149.320312 71.082031 149.226562 70.535156 C 149.207031 70.40625 149.222656 70.28125 149.253906 70.160156 C 148.496094 69.394531 147.75 68.617188 147.042969 67.8125 C 146.894531 67.988281 146.671875 68.15625 146.398438 68.3125 C 146.523438 69.007812 146.648438 69.703125 146.773438 70.398438 C 147.5625 70.378906 148.210938 70.589844 148.316406 71.136719 C 148.339844 71.253906 148.359375 71.371094 148.382812 71.488281 C 148.773438 71.707031 149.152344 71.9375 149.53125 72.171875 Z M 154.289062 95.859375 C 153.273438 90.769531 152.257812 85.683594 151.238281 80.597656 C 150.773438 79.734375 150.25 78.90625 149.660156 78.125 C 150.75 83.308594 152.046875 88.441406 153.570312 93.515625 C 153.804688 94.300781 154.046875 95.078125 154.289062 95.859375 Z M 156.410156 78.050781 C 156.144531 77.675781 155.871094 77.304688 155.589844 76.941406 C 155.617188 77.082031 155.644531 77.226562 155.671875 77.367188 C 155.832031 78.058594 155.996094 78.746094 156.160156 79.433594 C 156.242188 78.972656 156.320312 78.511719 156.410156 78.050781 Z M 156.792969 114.5625 C 156.726562 114.507812 156.660156 114.449219 156.597656 114.390625 C 156.636719 114.613281 156.679688 114.832031 156.722656 115.054688 C 156.746094 114.890625 156.765625 114.726562 156.792969 114.5625 Z M 160.203125 89.410156 C 160.210938 88.621094 160.164062 87.859375 160.074219 87.117188 C 160.015625 87.46875 159.960938 87.824219 159.902344 88.175781 C 159.882812 88.296875 159.796875 88.414062 159.679688 88.527344 C 159.851562 89.070312 160.015625 89.617188 160.175781 90.164062 C 160.191406 89.914062 160.203125 89.660156 160.203125 89.410156 Z M 163.277344 110.25 C 162.761719 109.507812 162.265625 108.761719 161.800781 108.007812 C 161.953125 108.789062 162.109375 109.566406 162.265625 110.347656 C 162.625 110.28125 162.96875 110.246094 163.277344 110.25 Z M 170.15625 111.9375 C 170.347656 110.238281 170.542969 108.539062 170.734375 106.835938 C 169.800781 106.996094 168.964844 106.945312 168.832031 106.5 C 168.757812 106.253906 168.695312 106.003906 168.625 105.757812 C 168.882812 107.441406 169.128906 109.125 169.378906 110.808594 C 169.640625 111.183594 169.898438 111.5625 170.15625 111.9375 Z M 176.417969 107.023438 C 176.570312 107.835938 176.683594 108.664062 176.75 109.507812 C 176.78125 109.46875 176.808594 109.421875 176.839844 109.382812 C 177.398438 108.6875 178.183594 108.089844 179.066406 107.644531 C 179.375 106.132812 179.671875 104.617188 179.964844 103.105469 C 179.261719 103.554688 178.082031 103.847656 177.066406 103.933594 C 176.949219 104.464844 176.835938 104.996094 176.726562 105.527344 C 176.621094 106.015625 176.519531 106.515625 176.417969 107.023438 Z M 143.070312 129.65625 C 142.320312 129.226562 141.613281 128.753906 140.929688 128.261719 C 141.339844 128.117188 141.769531 128.015625 142.199219 127.960938 C 141.984375 127.511719 141.796875 127.050781 141.636719 126.578125 C 141.632812 126.566406 141.632812 126.554688 141.628906 126.542969 C 141.351562 126.566406 141.089844 126.570312 140.851562 126.546875 C 140.625 126.671875 140.4375 126.765625 140.363281 126.792969 C 140.203125 126.855469 140.027344 126.914062 139.851562 126.972656 C 139.839844 127.121094 139.832031 127.273438 139.839844 127.429688 C 134.101562 122.785156 130.703125 115.84375 128.847656 108.710938 C 128.511719 107.40625 123.679688 108.664062 124.027344 110 C 126.1875 118.304688 130.484375 126.558594 138.058594 131.105469 C 144.273438 134.832031 151.738281 136.015625 157.988281 139.566406 C 157.445312 139.964844 156.789062 140.242188 156.101562 140.402344 C 156.113281 140.414062 156.125 140.425781 156.136719 140.4375 C 156.035156 140.445312 155.9375 140.449219 155.835938 140.457031 C 155.316406 140.550781 154.789062 140.578125 154.289062 140.542969 C 152.875 140.941406 151.589844 140.886719 150.324219 140.542969 C 149.421875 140.625 148.527344 140.738281 147.632812 140.863281 C 151.421875 141.359375 155.273438 141.179688 159.007812 140.160156 C 159.917969 140.730469 160.796875 141.359375 161.640625 142.0625 C 162.746094 142.984375 167.128906 141.136719 166.15625 140.324219 C 159.457031 134.730469 150.480469 133.898438 143.070312 129.65625 Z M 152.585938 64.230469 C 149.113281 62.296875 146.289062 59.753906 143.292969 57.269531 C 143.660156 57.246094 144.015625 57.222656 144.351562 57.203125 C 146.023438 57.09375 147.691406 56.894531 149.34375 56.625 C 149.960938 56.902344 150.542969 57.230469 151.082031 57.613281 C 151.574219 57.050781 152.082031 56.507812 152.601562 55.980469 C 154.902344 55.453125 157.171875 54.769531 159.378906 53.925781 C 163.761719 52.253906 168.8125 49.914062 172.128906 46.503906 C 173.742188 44.839844 173.804688 43.335938 173.050781 42.089844 C 174.308594 41.277344 176.882812 40.605469 177.109375 42.117188 C 177.164062 42.488281 177.226562 42.855469 177.28125 43.222656 C 177.683594 43.125 178.085938 43.019531 178.484375 42.929688 C 179.617188 42.664062 181.945312 42.933594 181.179688 44.652344 C 177.511719 52.914062 180.410156 61.144531 183.859375 68.964844 C 185.140625 71.871094 186.507812 74.730469 187.804688 77.617188 C 185.808594 78.671875 183.953125 80.019531 182.304688 81.597656 C 180.132812 83.675781 178.414062 86.128906 177.015625 88.769531 C 177.007812 88.730469 177 88.6875 176.992188 88.648438 C 176.992188 88.703125 176.992188 88.757812 176.992188 88.816406 C 175.421875 91.792969 174.265625 95.011719 173.347656 98.214844 C 170.964844 93.078125 168.125 88.101562 167.476562 82.3125 C 166.96875 77.753906 166.140625 73.800781 162.652344 70.574219 C 161.539062 69.546875 160.324219 68.664062 159.058594 67.863281 C 159.175781 67.515625 159.296875 67.171875 159.417969 66.824219 C 159.144531 67.078125 158.875 67.332031 158.605469 67.585938 C 157.5 66.910156 156.367188 66.277344 155.222656 65.660156 C 155.5 65.246094 155.78125 64.832031 156.058594 64.414062 C 156.058594 64.417969 156.054688 64.417969 156.054688 64.417969 C 156.042969 64.429688 156.027344 64.445312 156.015625 64.460938 C 155.671875 64.847656 155.109375 65.109375 154.523438 65.285156 C 153.875 64.9375 153.226562 64.585938 152.585938 64.230469 Z M 169.859375 56.824219 C 170.074219 56.792969 170.28125 56.777344 170.46875 56.769531 C 170.441406 56.265625 170.414062 55.757812 170.386719 55.253906 C 170.207031 55.773438 170.03125 56.296875 169.859375 56.824219 Z M 163.261719 59.953125 C 163.660156 59.8125 164.074219 59.714844 164.46875 59.648438 C 164.746094 58.738281 165.03125 57.828125 165.339844 56.921875 C 165.304688 56.953125 165.269531 56.984375 165.238281 57.019531 C 164.578125 57.996094 163.917969 58.972656 163.261719 59.953125 Z M 153.597656 60.648438 C 153.617188 60.691406 153.636719 60.742188 153.65625 60.789062 C 155.511719 58.804688 157.371094 56.824219 159.226562 54.839844 C 157.132812 56.503906 155.234375 58.429688 153.597656 60.648438 Z M 148.304688 61.246094 C 148.234375 61.148438 148.160156 61.050781 148.078125 60.960938 C 148.132812 61.082031 148.195312 61.203125 148.257812 61.320312 C 148.273438 61.296875 148.289062 61.269531 148.304688 61.246094 Z M 187.898438 121.371094 C 188.597656 119.828125 189.222656 118.253906 189.78125 116.65625 C 189.203125 118.242188 188.570312 119.8125 187.898438 121.371094 Z M 183.777344 85.546875 C 183.417969 86.097656 183.082031 86.644531 182.777344 87.183594 C 182.558594 87.566406 182.351562 87.953125 182.148438 88.34375 C 182.671875 87.402344 183.214844 86.46875 183.777344 85.546875 Z M 186.542969 100.785156 C 185.59375 100.933594 184.28125 101.296875 183.734375 102.167969 C 180.558594 107.242188 181.570312 113.382812 180.722656 119.03125 C 179.796875 125.195312 176 130.035156 171.367188 133.992188 C 170.5 134.734375 172.125 134.929688 172.542969 134.914062 C 173.667969 134.875 174.902344 134.460938 175.761719 133.730469 C 180.363281 129.796875 184.367188 124.847656 185.410156 118.734375 C 186.402344 112.941406 185.242188 106.585938 188.503906 101.375 C 189.007812 100.570312 186.777344 100.75 186.542969 100.785156 Z M 186.542969 100.785156 " fill-opacity="1" fill-rule="nonzero"/></svg>