<svg xmlns="http://www.w3.org/2000/svg" xmlns:xlink="http://www.w3.org/1999/xlink" width="500" zoomAndPan="magnify" viewBox="0 0 375 374.999991" height="500" preserveAspectRatio="xMidYMid meet" version="1.0"><defs><clipPath id="1153bfc670"><path d="M 42 71.589844 L 90 71.589844 L 90 116 L 42 116 Z M 42 71.589844 " clip-rule="nonzero"/></clipPath></defs><rect x="-37.5" width="450" fill="#ffffff" y="-37.499999" height="449.999989" fill-opacity="1"/><rect x="-37.5" width="450" fill="#ffffff" y="-37.499999" height="449.999989" fill-opacity="1"/><path fill="#e8a8be" d="M 175.15625 168.632812 C 166.847656 176.386719 161.742188 186.851562 158.160156 197.5 C 156.367188 202.820312 154.914062 208.253906 153.796875 213.746094 C 150.050781 232.277344 150.261719 251.328125 150.484375 270.21875 C 150.585938 278.621094 150.6875 287.03125 150.785156 295.433594 C 150.796875 296.351562 150.804688 297.308594 150.433594 298.15625 C 149.429688 300.472656 146.164062 300.941406 143.714844 300.164062 C 141.261719 299.382812 139.167969 297.742188 136.710938 296.996094 C 131.117188 295.285156 125.1875 298.46875 119.332031 298.253906 C 112.289062 297.996094 106.476562 292.957031 99.785156 290.789062 C 91.789062 288.199219 83.089844 289.839844 74.660156 289.789062 C 73.640625 289.78125 72.5625 289.734375 71.714844 289.179688 C 71.035156 288.738281 70.59375 288.027344 70.28125 287.296875 C 68.3125 282.722656 70.582031 277.5625 72.839844 273.113281 C 81.109375 256.8125 89.648438 240.644531 98.460938 224.617188 C 101.742188 218.644531 105.097656 212.648438 109.46875 207.382812 C 113.890625 202.066406 119.265625 197.59375 124.710938 193.269531 C 139.800781 181.289062 156.261719 169.925781 175.152344 168.632812 Z M 175.15625 168.632812 " fill-opacity="1" fill-rule="nonzero"/><path fill="#e5a9bf" d="M 196.648438 167.484375 C 202.347656 190.082031 208.039062 212.6875 213.738281 235.28125 C 214.835938 239.636719 215.9375 244.003906 216.503906 248.453125 C 217.128906 253.34375 217.09375 258.292969 217.0625 263.21875 C 216.988281 275.5 216.910156 287.777344 216.835938 300.058594 C 222.917969 303.121094 230.226562 302.621094 236.9375 301.285156 C 243.644531 299.945312 250.300781 297.847656 257.148438 297.960938 C 264.121094 298.074219 270.945312 300.488281 277.914062 300.171875 C 284.277344 299.882812 291.328125 297.488281 296.566406 301.019531 C 287.53125 277.300781 293.097656 249.726562 282.140625 226.785156 C 276.085938 214.125 265.449219 204.023438 253.800781 195.863281 C 242.15625 187.707031 229.375 181.238281 217.195312 173.859375 C 211.375 170.335938 205.109375 166.449219 196.648438 167.480469 Z M 196.648438 167.484375 " fill-opacity="1" fill-rule="nonzero"/><path fill="#e787a8" d="M 217.949219 255.109375 C 225.75 241.816406 225.570312 224.429688 217.488281 211.296875 C 216.640625 209.910156 215.667969 208.332031 216.164062 206.792969 C 217.097656 203.875 221.660156 204.605469 224.128906 206.488281 C 226.601562 208.367188 229.429688 210.984375 232.371094 209.917969 C 233.390625 209.542969 234.222656 208.761719 235.277344 208.507812 C 237.363281 208.011719 239.253906 209.746094 240.617188 211.367188 C 249.789062 222.285156 256.152344 235.425781 258.980469 249.261719 C 261.332031 249.671875 262.996094 246.808594 262.757812 244.492188 C 262.523438 242.171875 261.226562 240.039062 261.097656 237.710938 C 260.972656 235.382812 262.972656 232.636719 265.246094 233.367188 C 266.101562 234.921875 266.957031 236.484375 267.8125 238.039062 C 267.769531 236.21875 268.398438 234.386719 269.566406 232.960938 C 276.992188 236.46875 283.488281 241.824219 288.261719 248.382812 C 282.75 227.539062 272.414062 207.675781 256.917969 192.332031 C 241.421875 176.988281 220.578125 166.417969 198.546875 164.734375 C 197.625 176.941406 202.128906 188.820312 205.78125 200.53125 C 211.441406 218.65625 215.21875 237.332031 217.941406 255.105469 Z M 217.949219 255.109375 " fill-opacity="1" fill-rule="nonzero"/><path fill="#e787a8" d="M 93.78125 288.308594 C 92.105469 281.96875 86.484375 276.777344 79.886719 275.492188 C 84.015625 267.113281 88.144531 258.742188 92.273438 250.363281 C 97.347656 240.066406 103.140625 229.042969 113.691406 224.058594 C 113.1875 226.03125 112.683594 228.105469 113.210938 230.074219 C 113.742188 232.042969 115.683594 233.808594 117.738281 233.4375 C 118.699219 233.269531 119.519531 232.667969 120.269531 232.054688 C 123.285156 229.554688 125.726562 226.402344 127.359375 222.890625 C 128.1875 221.113281 128.9375 219.097656 130.6875 218.128906 C 132.433594 217.164062 135.355469 218.417969 134.867188 220.316406 C 136.777344 218.4375 138.6875 216.5625 140.597656 214.683594 C 140.019531 220.085938 139.433594 225.496094 138.855469 230.898438 C 139.753906 228.988281 142.765625 228.953125 144.398438 230.320312 C 146.03125 231.6875 146.632812 233.863281 147.144531 235.894531 C 148.164062 239.921875 149.1875 243.9375 150.210938 247.964844 C 153.332031 240.597656 152.761719 232.332031 153.167969 224.371094 C 154.234375 203.292969 162.722656 182.640625 176.875 166.660156 C 149.914062 173.078125 125.40625 188.867188 108.804688 210.527344 C 100.628906 221.1875 94.382812 233.109375 88.175781 244.957031 C 82.085938 256.589844 75.992188 268.222656 69.902344 279.855469 C 69.007812 281.566406 68.082031 283.425781 68.367188 285.328125 C 69.015625 289.746094 75.167969 290.867188 79.625 289.828125 C 84.078125 288.785156 88.898438 286.734375 93.78125 288.316406 Z M 93.78125 288.308594 " fill-opacity="1" fill-rule="nonzero"/><path fill="#e787a8" d="M 116.867188 297.855469 C 121.902344 296.394531 125.464844 290.855469 130.710938 291.042969 C 134.355469 291.171875 137.148438 294.054688 140.125 296.109375 C 143.09375 298.167969 147.78125 299.246094 149.980469 296.40625 C 151.757812 298.316406 149.09375 301.492188 146.449219 301.40625 C 143.800781 301.324219 141.628906 299.488281 139.347656 298.183594 C 133.097656 294.609375 124.695312 294.984375 116.867188 297.855469 Z M 116.867188 297.855469 " fill-opacity="1" fill-rule="nonzero"/><path fill="#e787a8" d="M 96.398438 273.265625 C 101.148438 265.453125 105.890625 257.644531 110.644531 249.832031 C 112.589844 249.980469 112.523438 252.789062 111.84375 254.570312 C 110.023438 259.359375 108.203125 264.15625 106.382812 268.945312 C 105.699219 270.742188 104.96875 272.613281 103.515625 273.902344 C 102.066406 275.191406 99.664062 275.6875 96.398438 273.265625 Z M 96.398438 273.265625 " fill-opacity="1" fill-rule="nonzero"/><path fill="#e787a8" d="M 235.207031 236.34375 C 234.15625 241.058594 233.371094 245.832031 232.867188 250.628906 C 232.652344 252.628906 232.769531 255.148438 234.644531 255.996094 C 237.539062 253.265625 236.023438 248.558594 236.820312 244.710938 C 237.199219 242.890625 238.121094 241.210938 238.472656 239.390625 C 238.820312 237.5625 238.371094 235.371094 235.207031 236.351562 Z M 235.207031 236.34375 " fill-opacity="1" fill-rule="nonzero"/><path fill="#e787a8" d="M 275.925781 245.441406 C 276.734375 250.589844 277.535156 255.734375 278.34375 260.886719 C 281.648438 259.449219 281.945312 254.824219 280.449219 251.617188 C 278.945312 248.410156 276.238281 245.808594 275.933594 245.441406 Z M 275.925781 245.441406 " fill-opacity="1" fill-rule="nonzero"/><path fill="#e8b8c9" d="M 271.363281 258.429688 C 268.976562 260.503906 266.519531 262.613281 263.550781 263.753906 C 260.574219 264.898438 256.917969 264.886719 254.4375 262.917969 C 250.460938 259.765625 251.308594 253.707031 249.476562 249.046875 C 248.507812 246.589844 246.375 244.285156 243.675781 244.203125 C 240.976562 244.121094 238.5 247.386719 240.101562 249.507812 C 237.085938 247.523438 232.71875 249.035156 230.464844 251.828125 C 228.214844 254.621094 227.550781 258.28125 226.949219 261.78125 C 226.230469 265.984375 225.511719 270.183594 224.785156 274.386719 C 224.09375 278.390625 223.421875 282.597656 224.773438 286.445312 C 226.121094 290.296875 230.21875 293.554688 234.269531 292.574219 C 235.925781 292.175781 237.332031 291.15625 238.8125 290.332031 C 244.882812 286.9375 252.28125 286.832031 259.265625 287.308594 C 265.625 287.742188 271.941406 288.59375 278.289062 289.144531 C 279.90625 289.289062 281.738281 289.335938 282.898438 288.234375 C 283.535156 287.625 283.847656 286.769531 284.101562 285.941406 C 287.007812 276.496094 285.351562 265.816406 271.363281 258.441406 Z M 271.363281 258.429688 " fill-opacity="1" fill-rule="nonzero"/><path fill="#e8b8c9" d="M 126.761719 241.652344 C 121.828125 254.304688 116.773438 267.167969 108.25 277.855469 C 106.648438 279.871094 104.8125 282.375 105.816406 284.734375 C 106.085938 285.375 106.550781 285.921875 107.089844 286.375 C 110.253906 289.082031 115.304688 288.257812 118.839844 286.027344 C 122.378906 283.800781 125.007812 280.453125 128.3125 277.914062 C 128.847656 277.503906 129.445312 277.097656 130.128906 277.046875 C 130.949219 276.996094 131.691406 277.46875 132.355469 277.9375 C 134.496094 279.445312 136.535156 281.101562 138.4375 282.882812 C 140.992188 282.574219 141.65625 279.164062 140.9375 276.761719 C 140.21875 274.355469 138.785156 271.882812 139.578125 269.5 C 139.917969 268.480469 140.644531 267.601562 140.914062 266.558594 C 141.167969 265.59375 141.003906 264.582031 140.835938 263.597656 C 139.664062 256.597656 137.902344 248.699219 131.636719 245.078125 C 130.464844 244.398438 129.0625 243.78125 126.761719 241.652344 Z M 126.761719 241.652344 " fill-opacity="1" fill-rule="nonzero"/><path fill="#cb7896" d="M 216.898438 268.316406 C 223.339844 253.75 217.847656 237.140625 213.664062 221.820312 C 211.246094 212.972656 209.289062 204.011719 207.792969 194.980469 C 207.523438 193.324219 207.332031 191.414062 208.496094 190.175781 C 210.1875 188.375 213.386719 189.433594 215.070312 191.242188 C 216.757812 193.050781 217.769531 195.460938 219.792969 196.90625 C 222.339844 198.726562 225.8125 198.566406 228.8125 199.535156 C 236.402344 201.992188 239.585938 210.996094 246.425781 215.03125 C 251.84375 218.230469 259.046875 217.988281 263.945312 221.902344 C 266.207031 223.703125 267.859375 226.308594 270.523438 227.46875 C 272.335938 228.253906 274.476562 228.292969 276.121094 229.367188 C 279.8125 231.769531 280.59375 238.765625 285.097656 238.902344 C 285.863281 240.148438 286.636719 241.398438 287.402344 242.648438 C 288.875 232.183594 279.117188 223.78125 270.363281 217.539062 C 247.835938 201.476562 225.304688 185.414062 202.777344 169.351562 C 200.191406 167.507812 196.648438 165.628906 194.023438 167.425781 C 199.347656 171.628906 200.550781 178.855469 201.90625 185.398438 C 209.113281 220.152344 215.449219 238.53125 216.882812 268.328125 Z M 216.898438 268.316406 " fill-opacity="1" fill-rule="nonzero"/><path fill="#cb7896" d="M 95.613281 287.40625 C 90.945312 287.992188 86.105469 288.558594 81.617188 287.191406 C 77.125 285.824219 73.074219 281.945312 73.1875 277.359375 C 73.246094 274.804688 74.546875 272.445312 75.832031 270.214844 C 85.652344 253.085938 96.160156 236.324219 107.332031 220 C 108.132812 218.824219 108.953125 217.640625 110.082031 216.761719 C 111.308594 215.816406 112.8125 215.289062 114.273438 214.742188 C 125.128906 210.707031 135.238281 204.773438 143.972656 197.304688 C 143.542969 201.355469 143.441406 205.4375 143.683594 209.503906 C 145.152344 208.574219 146.625 207.640625 148.09375 206.714844 C 147.25 213.804688 148.863281 221.152344 152.625 227.273438 C 151.265625 207.878906 165.386719 191.84375 172.660156 174.113281 C 174.027344 170.777344 178.121094 168.898438 178.59375 165.371094 C 146.507812 174.980469 117.933594 195.363281 98.847656 222.261719 C 87.078125 238.847656 78.964844 257.574219 70.921875 276.152344 C 69.027344 280.539062 67.558594 286.546875 71.566406 289.269531 C 73.515625 290.59375 76.09375 290.519531 78.46875 290.394531 C 85.082031 290.042969 91.695312 289.695312 95.621094 287.40625 Z M 95.613281 287.40625 " fill-opacity="1" fill-rule="nonzero"/><path fill="#cb7896" d="M 216.121094 278.074219 C 217.09375 282.5 218.058594 286.917969 219.03125 291.34375 C 219.480469 293.394531 219.96875 295.527344 221.332031 297.148438 C 222.691406 298.769531 225.210938 299.683594 227.054688 298.609375 C 228.039062 298.039062 228.722656 296.988281 229.8125 296.636719 C 230.921875 296.28125 232.105469 296.746094 233.238281 297.019531 C 238.800781 298.363281 244.316406 295.003906 249.980469 294.144531 C 255.640625 293.28125 261.667969 295.101562 265.835938 298.933594 C 257.773438 297.429688 249.332031 297.902344 241.496094 300.289062 C 238.59375 301.171875 235.746094 302.316406 232.734375 302.699219 C 227.667969 303.339844 222.605469 301.761719 217.746094 300.210938 C 217.304688 300.070312 216.824219 299.894531 216.628906 299.488281 C 216.527344 299.273438 216.523438 299.039062 216.515625 298.808594 C 216.414062 291.578125 217.121094 284.335938 216.121094 278.085938 Z M 216.121094 278.074219 " fill-opacity="1" fill-rule="nonzero"/><path fill="#cb7896" d="M 274.84375 299.992188 C 279.398438 297.148438 284.898438 295.757812 290.300781 296.09375 C 290.832031 296.128906 291.386719 296.167969 291.863281 295.953125 C 293.492188 295.203125 292.542969 292.851562 291.679688 291.3125 C 287.394531 283.617188 291.367188 277.183594 290.484375 268.476562 C 292.511719 280.707031 294.886719 289.886719 296.914062 302.128906 C 288.90625 299.816406 280.210938 299.777344 274.835938 300 Z M 274.84375 299.992188 " fill-opacity="1" fill-rule="nonzero"/><path fill="#b35d7d" d="M 197.660156 168.851562 C 201.101562 174.449219 204.804688 180.300781 210.65625 183.464844 C 212.808594 184.625 215.203125 185.398438 217.109375 186.910156 C 219.050781 188.449219 220.363281 190.664062 222.398438 192.078125 C 225.632812 194.332031 230.148438 194.210938 233.359375 196.5 C 234.847656 197.554688 235.925781 199.042969 237.066406 200.445312 C 242.585938 207.195312 250.152344 212.332031 258.5625 215.03125 C 241.664062 194.621094 216.644531 182.074219 198.320312 162.863281 C 197.542969 163.371094 195.320312 165.035156 197.667969 168.847656 Z M 197.660156 168.851562 " fill-opacity="1" fill-rule="nonzero"/><path fill="#e79bb8" d="M 171.609375 129.609375 C 162.757812 115.667969 149.332031 104.902344 134.65625 96.882812 C 119.980469 88.863281 103.988281 83.410156 88.003906 78.277344 C 80.460938 75.863281 72.804688 73.488281 64.875 72.992188 C 62.53125 72.847656 60.007812 72.917969 58.082031 74.226562 C 56.425781 75.351562 55.488281 77.207031 54.65625 78.996094 C 40.710938 109.019531 37.546875 143.671875 45.828125 175.621094 C 47.066406 180.394531 48.542969 185.109375 49.523438 189.933594 C 50.371094 194.152344 50.832031 198.4375 51.726562 202.644531 C 53.136719 209.273438 55.636719 215.683594 59.105469 221.558594 C 59.914062 222.925781 60.828125 224.316406 62.242188 225.089844 C 64.488281 226.316406 67.28125 225.632812 69.746094 224.917969 C 76.582031 222.945312 83.425781 220.976562 90.261719 219.003906 C 103.035156 215.320312 115.972656 211.566406 127.316406 204.785156 C 145.566406 193.882812 158.808594 175.6875 178.328125 167.125 C 174.875 154.550781 178.085938 139.808594 171.609375 129.609375 Z M 171.609375 129.609375 " fill-opacity="1" fill-rule="nonzero"/><path fill="#eab1c5" d="M 120.714844 117.71875 C 107.308594 118.523438 93.738281 116.761719 81.015625 112.5625 C 78.53125 111.742188 76.015625 110.816406 73.398438 110.816406 C 71.289062 110.816406 69.238281 111.410156 67.214844 112 C 61.085938 113.792969 53.835938 116.828125 53.175781 123.027344 C 52.910156 125.507812 53.84375 127.933594 54.367188 130.375 C 57.101562 143.109375 48.976562 157.722656 56.128906 168.710938 C 61.164062 176.441406 71.542969 178.605469 80.8125 180.082031 C 85.300781 180.800781 89.984375 181.503906 94.316406 180.164062 C 98.648438 178.820312 102.457031 174.75 101.789062 170.371094 C 101.164062 166.265625 96.957031 163.195312 96.785156 159.046875 C 100.28125 156.785156 104.765625 156.820312 108.867188 155.953125 C 112.972656 155.085938 117.433594 152.429688 117.507812 148.339844 C 117.542969 146.472656 116.636719 144.535156 117.351562 142.800781 C 118.652344 139.65625 123.332031 140.375 126.710938 139.523438 C 132.746094 138.011719 134.441406 128.695312 120.710938 117.722656 Z M 120.714844 117.71875 " fill-opacity="1" fill-rule="nonzero"/><path fill="#e78aa9" d="M 108.363281 85.191406 C 118.28125 90.070312 130.488281 98.214844 140.402344 103.09375 C 145.652344 105.671875 151.847656 110.769531 149.148438 115.859375 C 148.371094 117.328125 146.957031 118.363281 145.527344 119.261719 C 142.132812 121.386719 138.179688 123.21875 136.386719 126.746094 C 134.597656 130.269531 137.125 135.847656 141.078125 135.039062 C 137.902344 145.015625 133.382812 156.359375 123.15625 159.5 C 116.425781 161.5625 106.605469 160.980469 105.109375 167.695312 C 104.019531 172.59375 109.011719 176.558594 113.382812 179.199219 C 106.242188 184.625 99.097656 190.046875 91.949219 195.472656 C 87.667969 194.726562 87.96875 187.546875 83.882812 186.105469 C 81.902344 185.402344 79.777344 186.398438 77.773438 187.023438 C 65.984375 190.707031 54.367188 181.679688 45.445312 173.328125 C 47.941406 186.777344 50.730469 200.175781 53.800781 213.511719 C 54.664062 217.246094 55.824219 221.363281 59.164062 223.378906 C 62.046875 225.113281 65.714844 224.753906 69.0625 224.253906 C 83.972656 222.007812 98.621094 218.09375 112.28125 211.625 C 136.835938 204.625 152.277344 180.753906 175.152344 169.589844 C 175.917969 169.21875 176.730469 168.816406 177.15625 168.097656 C 178.210938 166.304688 176.242188 164.355469 174.96875 162.699219 C 168.90625 154.773438 178.578125 143.191406 175.175781 133.878906 C 172.859375 127.535156 165.390625 124.609375 161.089844 119.34375 C 158.585938 116.273438 157.195312 112.441406 154.652344 109.402344 C 151.589844 105.730469 146.089844 99.375 141.6875 97.375 C 133.09375 93.46875 122.992188 90.902344 108.355469 85.207031 Z M 108.363281 85.191406 " fill-opacity="1" fill-rule="nonzero"/><path fill="#e78aa9" d="M 42.621094 121.347656 C 46.132812 115.171875 49.734375 108.714844 50.03125 101.660156 C 50.105469 99.796875 49.960938 97.902344 50.484375 96.109375 C 51.074219 94.113281 52.457031 92.4375 53.808594 90.828125 C 57.480469 86.445312 62.371094 81.597656 68.070312 82.679688 C 69.878906 83.023438 71.609375 83.972656 73.453125 83.828125 C 75.78125 83.652344 77.613281 81.785156 79.871094 81.203125 C 81.640625 80.742188 83.511719 81.105469 85.304688 81.472656 C 92.285156 82.898438 99.261719 84.320312 106.234375 85.746094 C 104.957031 83.648438 102.4375 82.644531 100.082031 81.8125 C 88.40625 77.726562 76.375 74.566406 64.164062 72.378906 C 61.824219 71.960938 59.230469 71.625 57.226562 72.863281 C 56.046875 73.59375 55.257812 74.765625 54.527344 75.921875 C 44.980469 91.082031 40.742188 109.355469 42.621094 121.347656 Z M 42.621094 121.347656 " fill-opacity="1" fill-rule="nonzero"/><g clip-path="url(#1153bfc670)"><path fill="#e56e98" d="M 42.183594 115.113281 C 45.148438 107.210938 47.8125 94.535156 51.03125 86.730469 C 51.792969 84.882812 52.671875 82.917969 54.433594 81.921875 C 56.546875 80.722656 59.609375 81.140625 61.121094 79.273438 C 61.59375 78.691406 61.847656 77.941406 62.402344 77.4375 C 64.050781 75.914062 66.65625 77.472656 68.914062 77.707031 C 70.59375 77.878906 72.230469 77.253906 73.859375 76.835938 C 78.933594 75.53125 84.527344 76.28125 89.054688 78.863281 C 85.636719 75.136719 80.128906 74.183594 75.0625 73.445312 C 72.65625 73.097656 70.25 72.75 67.847656 72.398438 C 64.972656 71.980469 62.007812 71.566406 59.1875 72.261719 C 53.589844 73.636719 50.042969 78.949219 47.707031 84.101562 C 43.480469 93.40625 41.785156 108.429688 42.183594 115.113281 Z M 42.183594 115.113281 " fill-opacity="1" fill-rule="nonzero"/></g><path fill="#dfabbf" d="M 45.828125 175.621094 C 46.875 179.394531 55.835938 194.820312 57.332031 198.445312 C 57.902344 199.835938 58.144531 201.324219 58.523438 202.78125 C 59.195312 205.367188 60.292969 207.832031 61.386719 210.28125 C 62.535156 212.851562 63.945312 215.671875 66.644531 216.640625 C 69.386719 217.625 72.363281 216.320312 75.132812 215.429688 C 78.398438 214.382812 81.820312 213.886719 85.222656 213.398438 C 86.125 213.269531 87.019531 213.140625 87.921875 213.007812 C 92.449219 212.363281 96.980469 211.714844 101.488281 210.929688 C 111.097656 209.269531 120.675781 206.988281 129.507812 202.945312 C 125.542969 205.960938 120.84375 207.882812 116.199219 209.773438 C 111.238281 211.796875 106.277344 213.816406 101.308594 215.84375 C 95.992188 218.011719 90.679688 220.175781 85.359375 222.332031 C 80.847656 224.15625 76.269531 226.003906 71.417969 226.542969 C 66.566406 227.085938 61.328125 226.160156 57.667969 223.015625 C 54.664062 220.429688 53.042969 216.679688 51.519531 213.070312 C 50.242188 210.035156 48.933594 206.824219 49.386719 203.570312 C 49.800781 200.601562 49.40625 198.945312 48.738281 196.015625 C 48.738281 196.015625 42.363281 163.175781 45.828125 175.609375 Z M 45.828125 175.621094 " fill-opacity="1" fill-rule="nonzero"/><path fill="#e56e98" d="M 116.773438 88.460938 C 128.824219 102.078125 155.789062 107.085938 162.15625 123.964844 C 163.382812 127.214844 163.625 131.375 160.9375 133.648438 C 155.21875 138.476562 145.789062 128.890625 139.289062 132.660156 C 143.476562 136.367188 148.730469 138.925781 154.28125 139.960938 C 156.808594 140.4375 159.480469 140.625 161.71875 141.863281 C 163.964844 143.101562 165.628906 145.847656 164.574219 148.140625 C 163.394531 150.707031 159.894531 151.09375 157.003906 151.167969 C 142.027344 151.582031 127.109375 153.84375 112.710938 157.886719 C 108.519531 161.167969 111.363281 168.460938 116.367188 170.367188 C 121.371094 172.273438 126.980469 170.609375 132.078125 168.941406 C 138.921875 166.699219 145.765625 164.460938 152.609375 162.222656 C 155.40625 161.304688 159.183594 160.695312 160.730469 163.152344 C 159.796875 166.671875 155.753906 168.480469 152.058594 168.980469 C 148.363281 169.480469 144.46875 169.199219 141.0625 170.671875 C 138.113281 171.949219 135.867188 174.414062 133.023438 175.898438 C 129.628906 177.667969 125.644531 177.921875 121.914062 178.851562 C 116.441406 180.210938 111.078125 183.460938 109.039062 188.578125 C 106.996094 193.707031 109.648438 200.625 115.15625 201.824219 C 119.238281 202.714844 123.269531 200.457031 126.808594 198.289062 C 143.207031 188.261719 159.597656 178.238281 175.996094 168.210938 C 170.597656 161.273438 174.066406 151.5 174.339844 142.796875 C 174.757812 129.289062 166.59375 116.621094 155.886719 108.03125 C 145.175781 99.4375 127.960938 93.429688 116.765625 88.46875 Z M 116.773438 88.460938 " fill-opacity="1" fill-rule="nonzero"/><path fill="#e56e98" d="M 101.753906 108.75 C 99.792969 109.3125 97.71875 108.554688 95.800781 107.847656 C 93.886719 107.140625 91.746094 106.46875 89.84375 107.199219 C 87.941406 107.929688 86.914062 110.757812 88.558594 111.949219 C 89.34375 112.515625 90.402344 112.507812 91.382812 112.472656 C 94.710938 112.359375 98.046875 112.25 101.753906 108.75 Z M 101.753906 108.75 " fill-opacity="1" fill-rule="nonzero"/><path fill="#db789a" d="M 168.773438 165.441406 C 160.386719 168.992188 152 172.546875 143.613281 176.09375 C 141.527344 176.976562 139.410156 177.871094 137.632812 179.25 C 133.253906 182.632812 131.238281 188.589844 126.273438 191.09375 C 124.582031 191.949219 122.679688 192.316406 120.808594 192.675781 C 119.261719 192.96875 117.652344 193.265625 116.105469 192.917969 C 114.5625 192.570312 113.101562 191.390625 112.976562 189.851562 C 112.839844 188.160156 114.269531 186.777344 115.601562 185.691406 C 127.445312 176.035156 141.558594 169.023438 156.539062 165.339844 C 161.101562 164.21875 166.394531 162.925781 168.355469 158.757812 C 168.664062 158.117188 168.84375 157.300781 168.402344 156.742188 C 168.019531 156.253906 167.320312 156.152344 166.695312 156.101562 C 159.089844 155.453125 151.328125 156.640625 144.292969 159.53125 C 140.355469 161.144531 136.648438 163.285156 132.597656 164.613281 C 126.542969 166.605469 119.847656 166.695312 113.742188 164.863281 C 119.164062 157.160156 129.246094 155.097656 138.449219 152.117188 C 147.65625 149.136719 157.652344 151.074219 167.046875 149.195312 C 168.921875 148.816406 170.878906 148.359375 172.722656 148.863281 C 176.25 149.835938 177.863281 154.109375 177.078125 157.597656 C 176.296875 161.078125 173.597656 163.402344 168.769531 165.445312 Z M 168.773438 165.441406 " fill-opacity="1" fill-rule="nonzero"/><path fill="#cb4f79" d="M 163.554688 116.910156 C 164.453125 123.25 166.941406 129.371094 170.742188 134.585938 C 165.285156 136.265625 159.261719 136.132812 153.894531 134.214844 C 154.988281 138.128906 159.546875 139.917969 163.566406 140.984375 C 167.585938 142.054688 172.164062 143.347656 173.925781 147.027344 C 174.621094 143.484375 175.316406 139.9375 176.019531 136.394531 C 176.40625 134.40625 176.796875 132.300781 176.089844 130.390625 C 175.683594 129.285156 174.933594 128.328125 174.179688 127.410156 C 171.449219 124.050781 168.539062 120.835938 163.554688 116.910156 Z M 163.554688 116.910156 " fill-opacity="1" fill-rule="nonzero"/><path fill="#e78aa9" d="M 95.585938 99.4375 C 87.515625 92.484375 76.109375 90.246094 65.355469 90.839844 C 62.484375 91 59.5 91.382812 57.132812 92.960938 C 54.761719 94.542969 53.234375 97.648438 54.351562 100.222656 C 55.871094 103.734375 60.738281 104.117188 64.648438 103.945312 C 70.511719 103.691406 76.371094 103.441406 82.234375 103.1875 C 88.097656 102.933594 94.382812 102.78125 95.585938 99.4375 Z M 95.585938 99.4375 " fill-opacity="1" fill-rule="nonzero"/><path fill="#e6bccd" d="M 194.625 135 C 211.71875 117.273438 229.683594 98.972656 253.082031 90.492188 C 264.128906 86.492188 275.910156 84.882812 287.585938 83.300781 C 296.957031 82.027344 306.320312 80.753906 315.691406 79.488281 C 321.792969 78.65625 329.492188 78.566406 332.386719 83.859375 C 333.351562 85.621094 333.539062 87.671875 333.6875 89.664062 C 337.488281 139.835938 327.933594 190.914062 306.203125 236.554688 C 299.03125 237.886719 291.539062 236.109375 285.003906 232.9375 C 278.46875 229.769531 272.726562 225.265625 267.042969 220.800781 C 245.105469 203.558594 223.175781 186.324219 201.238281 169.082031 C 199.816406 167.960938 198.363281 166.808594 197.476562 165.25 C 196.394531 163.34375 196.304688 161.066406 196.242188 158.882812 C 196.003906 151.050781 195.773438 143.226562 194.625 135 Z M 194.625 135 " fill-opacity="1" fill-rule="nonzero"/><path fill="#e3a1bb" d="M 203.828125 139.265625 C 211.027344 138.59375 218.03125 141.421875 225.144531 142.722656 C 232.257812 144.019531 240.816406 143.207031 244.882812 137.375 C 246.273438 135.382812 246.988281 132.996094 248.46875 131.0625 C 252.246094 126.132812 259.734375 125.683594 265.871094 127.152344 C 272.007812 128.617188 277.855469 131.535156 284.167969 131.730469 C 290.480469 131.921875 297.6875 127.957031 297.769531 121.804688 C 297.792969 120.039062 297.234375 118.1875 297.910156 116.550781 C 298.878906 114.191406 301.882812 113.386719 304.488281 113.273438 C 309.351562 113.066406 314.261719 114.21875 318.5 116.550781 C 318.007812 132.691406 312.074219 148.628906 301.824219 161.316406 C 300.988281 162.347656 300.097656 163.417969 299.832031 164.703125 C 299.160156 167.945312 302.480469 170.449219 304.882812 172.78125 C 307.28125 175.117188 308.507812 179.917969 305.324219 181.0625 C 304.488281 181.359375 303.5625 181.273438 302.679688 181.183594 C 297.164062 180.613281 291.640625 180.046875 286.125 179.476562 C 284.082031 182.328125 287.902344 185.785156 291.316406 186.804688 C 303.539062 190.449219 317.914062 185.546875 325.140625 175.273438 C 323.203125 192.820312 319.035156 210.132812 312.757812 226.6875 C 311.132812 230.96875 309.015625 235.582031 304.773438 237.527344 C 298.917969 240.210938 292.210938 236.574219 286.835938 233.074219 C 256.894531 213.574219 226.84375 193.996094 200.046875 170.558594 C 198.261719 169 196.433594 167.335938 195.585938 165.15625 C 194.691406 162.859375 195.003906 160.300781 195.328125 157.863281 C 196.40625 149.75 197.679688 139.835938 203.839844 139.265625 Z M 203.828125 139.265625 " fill-opacity="1" fill-rule="nonzero"/><path fill="#e3a1bb" d="M 203.554688 137.113281 C 212.789062 134.597656 220.996094 128.636719 226.09375 120.722656 C 227.125 119.121094 228.085938 117.386719 229.683594 116.308594 C 235.207031 112.589844 244.464844 118.773438 248.921875 113.882812 C 250.015625 112.679688 250.476562 111.050781 251.378906 109.710938 C 252.703125 107.734375 254.886719 106.492188 256.984375 105.324219 C 272.585938 96.644531 288.847656 87.941406 306.714844 86.128906 C 311.296875 85.660156 316.359375 85.804688 319.902344 88.671875 C 323.875 91.890625 325.808594 98.300781 330.96875 98.601562 C 330.164062 101.90625 331.078125 105.566406 333.351562 108.148438 C 333.921875 100.660156 333.546875 93.097656 332.242188 85.691406 C 331.929688 83.929688 331.53125 82.097656 330.355469 80.722656 C 329.042969 79.1875 326.980469 78.480469 324.980469 78.011719 C 315.070312 75.699219 304.695312 77.628906 294.699219 79.5625 C 285.96875 81.253906 277.242188 82.945312 268.511719 84.632812 C 257.804688 86.703125 246.871094 88.855469 237.425781 94.207031 C 224.191406 101.707031 215.226562 114.707031 202.9375 123.597656 C 200.203125 125.570312 197.242188 127.410156 195.328125 130.15625 C 193.410156 132.894531 192.871094 136.902344 195.121094 139.390625 C 197.371094 141.875 202.636719 141.027344 203.554688 137.121094 Z M 203.554688 137.113281 " fill-opacity="1" fill-rule="nonzero"/><path fill="#e3a1bb" d="M 310.707031 97.085938 C 303.941406 97.160156 297.179688 98.070312 290.65625 99.796875 C 288.945312 100.25 287.179688 100.800781 285.929688 102.019531 C 284.679688 103.238281 284.15625 105.335938 285.222656 106.710938 C 286.695312 108.601562 289.707031 107.90625 292.015625 107.164062 C 299.597656 104.722656 307.660156 103.726562 315.628906 104.253906 C 316.722656 104.324219 318.0625 104.304688 318.597656 103.375 C 318.847656 102.949219 318.839844 102.433594 318.78125 101.949219 C 318.46875 99.503906 316.648438 97.304688 310.699219 97.082031 Z M 310.707031 97.085938 " fill-opacity="1" fill-rule="nonzero"/><path fill="#e684a7" d="M 328.136719 168.820312 C 327.144531 173.765625 323.921875 177.945312 321.332031 182.304688 C 318.746094 186.660156 316.6875 191.867188 318.304688 196.652344 C 318.679688 197.777344 319.265625 198.902344 319.101562 200.074219 C 318.675781 203.0625 314.433594 203.410156 311.84375 205.074219 C 308.984375 206.910156 308.179688 210.550781 307.183594 213.746094 C 306.1875 216.941406 304.140625 220.476562 300.726562 220.742188 C 298.523438 216.34375 292.625 214.113281 287.949219 215.898438 C 285.933594 216.667969 284.097656 218.089844 281.933594 218.152344 C 280.40625 218.199219 278.957031 217.550781 277.578125 216.921875 C 266.347656 211.796875 255.128906 206.667969 243.898438 201.542969 C 248.933594 205.714844 253.964844 209.886719 259 214.050781 C 269.101562 222.417969 279.378906 230.90625 291.488281 236.183594 C 294.777344 237.617188 298.328125 238.824219 301.90625 238.417969 C 309.664062 237.527344 314.335938 229.757812 317.238281 222.691406 C 324.386719 205.285156 328.28125 186.617188 328.140625 168.816406 Z M 328.136719 168.820312 " fill-opacity="1" fill-rule="nonzero"/><path fill="#e684a7" d="M 302.3125 196.421875 C 298.335938 194.117188 294.285156 191.785156 289.796875 190.664062 C 285.308594 189.550781 280.242188 189.804688 276.445312 192.386719 C 279.105469 196.144531 283.382812 198.4375 287.507812 200.601562 C 290.648438 202.25 293.910156 203.929688 297.464844 204.207031 C 301.015625 204.484375 304.976562 202.96875 302.3125 196.417969 Z M 302.3125 196.421875 " fill-opacity="1" fill-rule="nonzero"/><path fill="#e684a7" d="M 198.457031 169.011719 C 202.640625 170.472656 207.28125 171.933594 211.40625 170.332031 C 215.53125 168.722656 217.625 162.453125 213.921875 160.058594 C 216.988281 159.175781 220.230469 160.34375 223.269531 161.308594 C 237.980469 165.988281 254.191406 166.113281 268.964844 161.628906 C 269.839844 161.363281 270.582031 160.75 270.921875 159.925781 C 271.566406 158.355469 270.355469 157.289062 269.207031 156.53125 C 263.238281 152.59375 255.863281 151.378906 248.75 150.261719 C 237.523438 148.492188 226.292969 146.726562 215.058594 144.964844 C 214.023438 144.796875 212.910156 144.605469 212.382812 143.480469 C 211.847656 142.328125 212.277344 140.984375 213.28125 140.179688 C 215.171875 138.660156 217.617188 139.035156 219.898438 139.199219 C 227.980469 139.789062 241.085938 137.027344 242.480469 132.148438 C 242.480469 123.0625 218.285156 128.175781 206.660156 131.558594 C 212.472656 127.03125 221.285156 123.644531 226.316406 119.324219 C 228.085938 117.804688 227.214844 114.9375 224.878906 114.640625 C 221.578125 114.230469 218.054688 115.300781 215.785156 117.679688 C 221.589844 112.089844 227.390625 106.503906 233.195312 100.910156 C 234.652344 99.507812 236.144531 98.082031 237.992188 97.230469 C 239.613281 96.480469 241.417969 96.222656 243.191406 95.9375 C 258.1875 93.535156 272.785156 88.832031 286.289062 82.050781 C 279.46875 81.214844 272.625 82.929688 265.984375 84.625 C 259.359375 86.320312 252.734375 88.019531 246.101562 89.710938 C 242.753906 90.566406 239.355469 91.449219 236.402344 93.210938 C 233.644531 94.859375 231.410156 97.207031 229.136719 99.449219 C 220.511719 107.964844 210.804688 115.429688 200.296875 121.625 C 198.621094 122.609375 196.816406 123.6875 196.09375 125.460938 C 195.34375 127.296875 195.96875 129.355469 196.328125 131.300781 C 197.671875 138.5 195.261719 145.789062 194.203125 153.035156 C 193.140625 160.285156 194.183594 167.503906 198.46875 169 Z M 198.457031 169.011719 " fill-opacity="1" fill-rule="nonzero"/><path fill="#e684a7" d="M 307.101562 93.027344 C 296.714844 91.996094 285.945312 97.269531 280.601562 106.003906 C 290.195312 103.941406 299.757812 101.703125 309.261719 99.292969 C 311.289062 98.777344 313.800781 97.613281 313.546875 95.585938 C 312.085938 95.378906 310.570312 95.574219 307.101562 93.027344 Z M 307.101562 93.027344 " fill-opacity="1" fill-rule="nonzero"/><path fill="#e684a7" d="M 295.472656 79.769531 C 302.472656 79.355469 309.480469 78.945312 316.484375 78.53125 C 318.273438 78.425781 320.191406 78.347656 321.742188 79.234375 C 323.289062 80.117188 324.144531 82.363281 322.941406 83.664062 C 324.675781 84.617188 326.410156 85.574219 328.140625 86.523438 C 327.632812 87.996094 328.460938 89.550781 329.191406 90.925781 C 332.359375 96.851562 334.316406 103.386719 334.917969 110.046875 C 334.488281 105.332031 335.507812 100.617188 335.875 95.898438 C 336.238281 91.175781 335.839844 86.109375 332.972656 82.285156 C 330.015625 78.332031 324.859375 76.386719 319.84375 76.097656 C 314.828125 75.808594 309.851562 76.957031 304.964844 78.101562 C 301.835938 78.832031 298.699219 79.5625 295.464844 79.765625 Z M 295.472656 79.769531 " fill-opacity="1" fill-rule="nonzero"/><path fill="#dd789a" d="M 226.085938 102.507812 C 222.78125 114.492188 212.15625 123.554688 200.335938 128.199219 C 204.28125 129.753906 209.332031 127.621094 210.859375 123.75 C 211.988281 126.144531 210.953125 129.300781 208.601562 130.609375 C 206.679688 131.675781 203.507812 133.0625 204.78125 134.824219 C 205.394531 135.671875 206.679688 135.617188 207.734375 135.476562 C 215.9375 134.375 232.351562 125.75 232.351562 132.175781 C 226.429688 141.050781 209.960938 135.757812 203.167969 144.019531 C 202.730469 144.550781 202.339844 145.152344 202.289062 145.828125 C 202.09375 148.261719 205.664062 148.847656 208.164062 148.722656 C 215.683594 148.347656 223.148438 149.988281 230.492188 151.628906 C 241.125 153.996094 263.382812 149.824219 262.394531 158.738281 C 259.488281 162.085938 254.855469 163.613281 250.363281 163.824219 C 245.875 164.039062 241.417969 163.101562 236.996094 162.289062 C 226.660156 160.394531 216.191406 159.1875 205.6875 158.679688 C 207.527344 160.753906 207.398438 164.207031 205.417969 166.152344 C 203.4375 168.097656 199.894531 168.25 197.75 166.476562 C 195.546875 164.664062 195.101562 161.582031 194.800781 158.78125 C 193.902344 150.277344 193 141.777344 192.089844 133.273438 C 191.992188 132.355469 191.898438 131.40625 192.144531 130.515625 C 192.699219 128.535156 194.566406 125.652344 196.277344 124.453125 C 208.121094 116.125 217.925781 108.246094 226.082031 102.515625 Z M 226.085938 102.507812 " fill-opacity="1" fill-rule="nonzero"/><path fill="#cb7896" d="M 321.144531 207.765625 C 317.84375 211.105469 315.121094 214.996094 313.136719 219.207031 C 311.820312 222 310.785156 224.996094 308.730469 227.328125 C 306.679688 229.660156 303.203125 231.183594 300.320312 229.933594 C 298.507812 229.148438 296.984375 227.339844 295.011719 227.558594 C 294.144531 227.652344 293.359375 228.140625 292.496094 228.207031 C 290.757812 228.335938 289.4375 226.808594 288.238281 225.574219 C 281.632812 218.703125 271.101562 217.40625 261.476562 216.523438 C 269.769531 224.558594 279.085938 231.589844 289.148438 237.40625 C 290.855469 238.394531 292.613281 239.355469 294.546875 239.808594 C 298.136719 240.652344 301.871094 239.644531 305.421875 238.648438 C 307.832031 237.96875 310.3125 237.257812 312.261719 235.726562 C 313.925781 234.421875 315.082031 232.625 316.199219 230.863281 C 318.070312 227.929688 319.949219 224.976562 321.308594 221.789062 C 323.808594 215.9375 324.464844 209.351562 321.140625 207.765625 Z M 321.144531 207.765625 " fill-opacity="1" fill-rule="nonzero"/><path fill="#e4a7bd" d="M 171.15625 131.648438 C 170.460938 128.742188 173.625 126.144531 176.679688 125.859375 C 179.730469 125.578125 182.691406 126.769531 185.703125 127.316406 C 188.71875 127.863281 191.867188 127.761719 194.84375 127.027344 C 195.988281 126.746094 197.195312 126.367188 198.308594 126.75 C 200.367188 127.457031 200.691406 130.113281 200.65625 132.242188 C 200.476562 143.359375 200.300781 154.472656 200.117188 165.59375 C 200.089844 167.492188 199.890625 169.699219 198.261719 170.738281 C 197.117188 171.46875 195.632812 171.355469 194.273438 171.214844 C 188.488281 170.621094 182.703125 170.03125 176.921875 169.433594 C 175.578125 169.300781 174.121094 169.109375 173.160156 168.179688 C 172.589844 167.625 172.894531 167.289062 172.59375 166.558594 C 168.820312 157.285156 165.25 146.125 171.144531 131.640625 Z M 171.15625 131.648438 " fill-opacity="1" fill-rule="nonzero"/><path fill="#e296b1" d="M 168.871094 151.164062 C 170.191406 146.566406 171.515625 141.96875 172.835938 137.375 C 173.171875 136.207031 173.542969 134.980469 174.4375 134.144531 C 175.46875 133.179688 177.136719 132.929688 178.417969 133.554688 C 179.695312 134.175781 180.496094 135.625 180.332031 137.003906 C 180.238281 137.804688 179.851562 138.558594 179.796875 139.367188 C 179.671875 141.308594 181.6875 142.941406 183.6875 142.941406 C 185.683594 142.941406 187.5 141.679688 188.679688 140.113281 C 189.019531 139.660156 189.34375 139.160156 189.871094 138.929688 C 190.929688 138.464844 192.179688 139.464844 192.378906 140.578125 C 192.582031 141.699219 192.078125 142.808594 191.589844 143.839844 C 193.835938 144.308594 195.515625 146.242188 196.28125 148.351562 C 197.046875 150.460938 197.054688 152.746094 197.046875 154.988281 C 197.046875 158.699219 196.582031 163.171875 193.164062 164.816406 C 191.851562 163.054688 188.898438 162.777344 187.257812 164.253906 C 186.664062 164.792969 186.238281 165.503906 185.578125 165.957031 C 184.9375 166.394531 184.140625 166.546875 183.375 166.6875 C 179.980469 167.3125 176.585938 167.9375 173.191406 168.5625 C 174.136719 170.078125 176.273438 170.289062 178.09375 170.335938 C 183.367188 170.472656 188.648438 170.613281 193.925781 170.75 C 194.867188 170.773438 195.828125 170.796875 196.734375 170.542969 C 198.796875 169.964844 200.214844 168.027344 200.75 166.003906 C 201.285156 163.980469 201.089844 161.851562 200.921875 159.769531 C 200.320312 152.457031 200.03125 145.0625 201.214844 137.816406 C 201.664062 135.070312 202.3125 132.183594 201.292969 129.585938 C 199.996094 126.277344 195.816406 124.351562 192.363281 125.464844 C 191.308594 125.808594 190.335938 126.390625 189.257812 126.644531 C 185.636719 127.503906 182.183594 124.582031 178.464844 124.433594 C 174.917969 124.292969 171.691406 126.78125 170.007812 129.824219 C 168.320312 132.871094 167.886719 136.40625 167.527344 139.847656 C 167.011719 144.808594 166.710938 150.214844 168.859375 151.152344 Z M 168.871094 151.164062 " fill-opacity="1" fill-rule="nonzero"/><path fill="#e381a3" d="M 165.558594 143.285156 C 167.785156 138.828125 170.011719 134.375 172.246094 129.914062 C 172.671875 129.070312 173.261719 128.109375 174.222656 128.050781 C 174.804688 128.015625 175.335938 128.335938 175.882812 128.519531 C 177.386719 129.011719 179.207031 128.371094 180.03125 127.050781 C 181.363281 126.703125 182.414062 128.371094 182.214844 129.695312 C 182.011719 131.023438 181.117188 132.160156 180.757812 133.457031 C 180.457031 134.550781 180.550781 135.710938 180.644531 136.851562 C 181.011719 141.046875 181.371094 145.242188 181.734375 149.4375 C 183.621094 146.636719 184.890625 143.445312 185.4375 140.136719 C 185.875 137.523438 186.039062 134.492188 188.195312 132.871094 C 190.023438 131.5 193.292969 130.902344 193.070312 128.664062 C 194.984375 129.636719 195.628906 132.007812 195.664062 134.105469 C 195.699219 136.207031 195.339844 138.375 196.046875 140.363281 C 196.941406 142.867188 199.496094 145.128906 198.691406 147.664062 C 200.332031 146.359375 200.601562 144.003906 200.265625 141.96875 C 199.929688 139.9375 199.109375 137.980469 199.035156 135.917969 C 198.90625 132.382812 200.765625 128.195312 198.191406 125.707031 C 196.554688 124.128906 193.890625 124.214844 191.65625 124.769531 C 189.421875 125.316406 187.175781 126.230469 184.890625 125.917969 C 182.945312 125.652344 181.230469 124.535156 179.308594 124.128906 C 175.132812 123.242188 170.863281 126.023438 168.816406 129.679688 C 166.769531 133.324219 166.476562 137.640625 165.558594 143.285156 Z M 165.558594 143.285156 " fill-opacity="1" fill-rule="nonzero"/><path fill="#e381a3" d="M 181.546875 162.648438 C 182.066406 158.714844 182.898438 154.28125 186.328125 152.148438 C 187.199219 154.738281 186.679688 157.554688 186.148438 160.230469 C 185.945312 161.261719 185.726562 162.335938 185.058594 163.160156 C 184.394531 163.984375 183.144531 164.460938 181.546875 162.652344 Z M 181.546875 162.648438 " fill-opacity="1" fill-rule="nonzero"/><path fill="#e381a3" d="M 200.464844 156.03125 C 199.085938 159.566406 198.605469 163.425781 199.070312 167.179688 C 198.308594 168.59375 196.328125 168.820312 194.703125 168.605469 C 193.082031 168.378906 191.359375 167.910156 189.859375 168.550781 C 189.136719 168.859375 188.519531 169.410156 187.742188 169.511719 C 186.738281 169.640625 185.832031 169 184.882812 168.675781 C 183.019531 168.03125 180.761719 168.722656 179.609375 170.285156 C 179.539062 172.046875 181.683594 173.160156 183.492188 173.070312 C 185.300781 172.988281 187.015625 172.179688 188.824219 172.121094 C 191.320312 172.035156 193.828125 173.351562 196.222656 172.671875 C 199.074219 171.855469 200.34375 168.632812 200.785156 165.769531 C 201.414062 161.6875 201.179688 157.472656 200.460938 156.035156 Z M 200.464844 156.03125 " fill-opacity="1" fill-rule="nonzero"/><path fill="#b35d7d" d="M 171.386719 162.953125 C 169.554688 158.953125 169.441406 154.4375 169.359375 150.0625 C 169.339844 149.117188 169.324219 148.179688 169.304688 147.238281 C 169.242188 143.863281 169.175781 140.480469 169.445312 137.109375 C 169.640625 134.652344 170.042969 132.140625 171.304688 130.003906 C 173.207031 126.769531 177.457031 124.746094 181.050781 126.023438 C 184.648438 127.304688 186.433594 132.332031 183.894531 135.117188 C 185.519531 135.023438 186.6875 133.550781 187.3125 132.082031 C 187.9375 130.621094 188.273438 128.996094 189.304688 127.769531 C 190.546875 126.296875 192.75 125.683594 194.609375 126.289062 C 196.464844 126.898438 197.839844 128.6875 197.921875 130.59375 C 197.972656 131.816406 197.53125 133.015625 197.390625 134.234375 C 196.949219 138.035156 200.902344 147.722656 200.660156 151.539062 C 201.546875 146.566406 202.476562 136.800781 201.875 132.300781 C 201.273438 127.792969 197.554688 123.332031 192.894531 123.484375 C 190.636719 123.5625 188.53125 124.671875 186.285156 124.886719 C 182.058594 125.300781 177.550781 122.574219 173.753906 124.421875 C 172.234375 125.164062 171.136719 126.53125 170.238281 127.941406 C 167.957031 131.476562 166.011719 134.25 165.5625 138.398438 C 164.9375 144.214844 166.746094 151.316406 168.039062 157.027344 C 168.746094 160.160156 169.757812 163.695312 171.390625 162.953125 Z M 171.386719 162.953125 " fill-opacity="1" fill-rule="nonzero"/><path fill="#b35d7d" d="M 200.925781 159.769531 C 200.996094 161.691406 200.765625 166.878906 199.984375 168.640625 C 199.199219 170.402344 197.324219 171.863281 195.378906 171.539062 C 194.621094 171.414062 193.925781 171.039062 193.175781 170.855469 C 191.214844 170.378906 189.148438 171.292969 187.140625 171.074219 C 185.496094 170.894531 183.945312 169.964844 182.300781 170.148438 C 181.433594 170.242188 175.304688 168.886719 173.171875 168.179688 C 174.003906 170.140625 175.960938 172.371094 178.132812 172.503906 C 180.308594 172.644531 184.464844 172.789062 186.640625 172.789062 C 190.144531 172.789062 193.792969 174.035156 197.070312 172.8125 C 200.136719 171.664062 202.398438 165.050781 200.933594 159.765625 Z M 200.925781 159.769531 " fill-opacity="1" fill-rule="nonzero"/></svg>