<svg xmlns="http://www.w3.org/2000/svg" xmlns:xlink="http://www.w3.org/1999/xlink" width="500" zoomAndPan="magnify" viewBox="0 0 375 374.999991" height="500" preserveAspectRatio="xMidYMid meet" version="1.0"><defs><clipPath id="ddb0a29185"><path d="M 57 108 L 318 108 L 318 303.75 L 57 303.75 Z M 57 108 " clip-rule="nonzero"/></clipPath></defs><rect x="-37.5" width="450" fill="#ffffff" y="-37.499999" height="449.999989" fill-opacity="1"/><rect x="-37.5" width="450" fill="#ffffff" y="-37.499999" height="449.999989" fill-opacity="1"/><g clip-path="url(#ddb0a29185)"><path fill="#f36286" d="M 314.691406 149.886719 C 304.4375 143.730469 272.636719 188.871094 267.507812 186.816406 C 261.382812 184.367188 258.996094 143.238281 253.65625 142.195312 C 248.472656 141.175781 229.335938 181.074219 224.421875 179.378906 C 216.984375 176.816406 200.316406 108.855469 187.492188 108.855469 C 174.667969 108.855469 157.996094 176.816406 150.5625 179.378906 C 145.652344 181.074219 126.511719 141.175781 121.328125 142.195312 C 115.988281 143.238281 113.601562 184.367188 107.476562 186.816406 C 102.351562 188.871094 70.546875 143.730469 60.292969 149.886719 C 45.929688 160.144531 99.273438 277.089844 121.839844 303.761719 C 147.484375 299.144531 218.269531 300.171875 253.148438 303.761719 C 275.710938 277.089844 329.058594 160.144531 314.691406 149.886719 " fill-opacity="1" fill-rule="nonzero"/></g><path fill="#f36286" d="M 46.265625 128.476562 C 37.675781 132.960938 41.601562 150.554688 54.132812 146.851562 C 70.976562 141.953125 59.53125 121.546875 46.265625 128.476562 " fill-opacity="1" fill-rule="nonzero"/><path fill="#f36286" d="M 328.71875 128.476562 C 337.308594 132.960938 333.382812 150.554688 320.851562 146.851562 C 304.003906 141.949219 315.453125 121.546875 328.71875 128.476562 " fill-opacity="1" fill-rule="nonzero"/><path fill="#f36286" d="M 114.277344 122.617188 C 107.640625 126.082031 110.671875 139.675781 120.351562 136.816406 C 133.367188 133.027344 124.523438 117.261719 114.277344 122.617188 " fill-opacity="1" fill-rule="nonzero"/><path fill="#f36286" d="M 260.710938 122.617188 C 267.347656 126.082031 264.316406 139.675781 254.632812 136.816406 C 241.617188 133.027344 250.460938 117.261719 260.710938 122.617188 " fill-opacity="1" fill-rule="nonzero"/><path fill="#f36286" d="M 180.566406 79.457031 C 170.394531 84.769531 175.039062 105.601562 189.878906 101.214844 C 209.824219 95.410156 196.273438 71.253906 180.566406 79.457031 " fill-opacity="1" fill-rule="nonzero"/></svg>