<svg xmlns="http://www.w3.org/2000/svg" xmlns:xlink="http://www.w3.org/1999/xlink" width="500" zoomAndPan="magnify" viewBox="0 0 375 374.999991" height="500" preserveAspectRatio="xMidYMid meet" version="1.0"><defs><clipPath id="bde4f71d00"><path d="M 38 38 L 345.859375 38 L 345.859375 345.859375 L 38 345.859375 Z M 38 38 " clip-rule="nonzero"/></clipPath><clipPath id="604016b830"><path d="M 29.359375 29.359375 L 345.859375 29.359375 L 345.859375 345.859375 L 29.359375 345.859375 Z M 29.359375 29.359375 " clip-rule="nonzero"/></clipPath><clipPath id="9fa8be68a4"><path d="M 56 56 L 345.859375 56 L 345.859375 345.859375 L 56 345.859375 Z M 56 56 " clip-rule="nonzero"/></clipPath><clipPath id="83db5ebba5"><path d="M 82 82 L 345.859375 82 L 345.859375 345.859375 L 82 345.859375 Z M 82 82 " clip-rule="nonzero"/></clipPath><clipPath id="8c5bcebd6e"><path d="M 109 108 L 345.859375 108 L 345.859375 345.859375 L 109 345.859375 Z M 109 108 " clip-rule="nonzero"/></clipPath><clipPath id="91f139db8e"><path d="M 135 135 L 345.859375 135 L 345.859375 345.859375 L 135 345.859375 Z M 135 135 " clip-rule="nonzero"/></clipPath></defs><rect x="-37.5" width="450" fill="#ffffff" y="-37.499999" height="449.999989" fill-opacity="1"/><rect x="-37.5" width="450" fill="#ffffff" y="-37.499999" height="449.999989" fill-opacity="1"/><g clip-path="url(#bde4f71d00)"><path fill="#8767ac" d="M 345.859375 38.152344 C 171.0625 38.152344 38.152344 171.0625 38.152344 345.859375 L 187.976562 345.859375 C 187.976562 258.671875 258.679688 187.976562 345.859375 187.976562 Z M 345.859375 38.152344 " fill-opacity="1" fill-rule="nonzero"/></g><g clip-path="url(#604016b830)"><path fill="#eb2027" d="M 29.359375 345.851562 L 56.101562 345.851562 C 56.101562 185.9375 185.640625 56.296875 345.5 56.101562 L 345.5 29.359375 C 170.859375 29.5625 29.359375 171.175781 29.359375 345.851562 Z M 29.359375 345.851562 " fill-opacity="1" fill-rule="nonzero"/></g><g clip-path="url(#9fa8be68a4)"><path fill="#f19020" d="M 56.464844 345.859375 L 82.839844 345.859375 C 82.839844 200.515625 200.558594 82.679688 345.859375 82.488281 L 345.859375 56.113281 C 186 56.304688 56.464844 185.949219 56.464844 345.859375 Z M 56.464844 345.859375 " fill-opacity="1" fill-rule="nonzero"/></g><g clip-path="url(#83db5ebba5)"><path fill="#ffcb4c" d="M 82.839844 345.859375 L 109.214844 345.859375 C 109.214844 215.082031 215.128906 109.054688 345.859375 108.863281 L 345.859375 82.488281 C 200.558594 82.679688 82.839844 200.515625 82.839844 345.859375 Z M 82.839844 345.859375 " fill-opacity="1" fill-rule="nonzero"/></g><g clip-path="url(#8c5bcebd6e)"><path fill="#5c903f" d="M 109.214844 345.859375 L 135.589844 345.859375 C 135.589844 229.660156 229.703125 135.429688 345.859375 135.238281 L 345.859375 108.863281 C 215.128906 109.054688 109.214844 215.082031 109.214844 345.859375 Z M 109.214844 345.859375 " fill-opacity="1" fill-rule="nonzero"/></g><g clip-path="url(#91f139db8e)"><path fill="#226798" d="M 135.589844 345.859375 L 161.964844 345.859375 C 161.964844 244.226562 244.269531 161.8125 345.859375 161.621094 L 345.859375 135.238281 C 229.703125 135.429688 135.589844 229.660156 135.589844 345.859375 Z M 135.589844 345.859375 " fill-opacity="1" fill-rule="nonzero"/></g></svg>