<svg xmlns="http://www.w3.org/2000/svg" xmlns:xlink="http://www.w3.org/1999/xlink" width="500" zoomAndPan="magnify" viewBox="0 0 375 374.999991" height="500" preserveAspectRatio="xMidYMid meet" version="1.0"><defs><clipPath id="0d0b52331c"><path d="M 37.5 53.152344 L 337.5 53.152344 L 337.5 322.222656 L 37.5 322.222656 Z M 37.5 53.152344 " clip-rule="nonzero"/></clipPath><clipPath id="3bc22078b3"><path d="M 38 57.445312 L 336.457031 57.445312 L 336.457031 322.222656 L 38 322.222656 Z M 38 57.445312 " clip-rule="nonzero"/></clipPath></defs><rect x="-37.5" width="450" fill="#ffffff" y="-37.499999" height="449.999989" fill-opacity="1"/><rect x="-37.5" width="450" fill="#ffffff" y="-37.499999" height="449.999989" fill-opacity="1"/><path fill="#f4aea8" d="M 125.679688 108.488281 C 128.992188 109.164062 132.238281 111.125 135.609375 111.25 C 139.710938 111.371094 141.914062 107.136719 144.121094 104.378906 C 150.738281 96.15625 158.519531 88.796875 167.09375 82.660156 C 169.117188 81.1875 171.503906 79.164062 170.894531 76.769531 C 170.28125 74.074219 166.726562 73.519531 163.96875 73.703125 C 141.058594 74.992188 118.820312 85.117188 102.769531 101.496094 C 100.933594 103.335938 99.09375 106.097656 100.441406 108.304688 C 101.667969 110.328125 104.546875 110.269531 106.875 109.898438 C 113.0625 108.917969 119.3125 107.199219 125.679688 108.488281 Z M 244.285156 148.730469 C 244.960938 145.171875 245.082031 141.675781 245.265625 138.117188 C 245.390625 135.726562 246.246094 134.375 248.511719 133.519531 C 255.3125 130.820312 263.03125 129.960938 270.257812 130.695312 C 271.054688 130.757812 271.976562 131 272.28125 131.738281 C 272.589844 132.414062 272.160156 133.210938 271.730469 133.824219 C 264.132812 145.234375 254.699219 155.359375 243.917969 163.699219 C 242.9375 164.4375 241.527344 165.234375 240.546875 164.5 C 239.445312 163.699219 239.933594 161.980469 240.488281 160.753906 C 242.261719 156.890625 243.488281 152.84375 244.285156 148.730469 " fill-opacity="1" fill-rule="nonzero"/><g clip-path="url(#0d0b52331c)"><path fill="#ffc3bb" d="M 337.527344 125.296875 C 337.464844 126.460938 337.097656 127.382812 336.484375 128.179688 C 336.054688 128.730469 335.566406 129.160156 334.953125 129.59375 C 332.441406 131.25 328.582031 131.800781 325.394531 131.800781 C 299.175781 131.921875 273.078125 136.339844 248.207031 144.4375 C 238.28125 155.972656 226.335938 165.726562 213.042969 173.148438 C 212.492188 173.457031 211.878906 173.824219 211.203125 173.761719 C 209.792969 173.699219 208.875 172.042969 209.121094 170.695312 C 209.304688 169.285156 210.222656 168.117188 211.140625 167.074219 C 213.898438 163.640625 216.347656 159.960938 218.554688 156.152344 C 171.445312 177.933594 130.523438 213.207031 103.503906 257.625 C 83.289062 285.289062 109.445312 286.089844 96.277344 315.226562 C 95.96875 315.78125 95.726562 316.332031 95.417969 316.761719 C 94.929688 317.621094 94.378906 318.359375 93.824219 318.972656 C 91.863281 321.179688 89.722656 322.160156 87.640625 322.222656 C 87.210938 322.222656 86.78125 322.222656 86.292969 322.097656 C 84.148438 321.730469 82.246094 320.320312 80.960938 318.050781 C 80.652344 317.496094 80.410156 316.945312 80.164062 316.332031 C 79.429688 314.371094 79.121094 311.976562 79.304688 309.277344 C 81.941406 292.222656 75.816406 289.097656 64.789062 297.746094 C 61.539062 300.261719 57.925781 302.039062 54.4375 303.082031 C 53.332031 303.449219 52.167969 303.695312 51.125 303.878906 C 45.796875 304.863281 41.140625 304.0625 38.875 301.792969 C 38.566406 301.488281 38.261719 301.117188 38.078125 300.75 C 37.21875 299.21875 37.28125 297.191406 38.507812 294.675781 C 38.75 294.246094 38.996094 293.757812 39.300781 293.390625 C 39.792969 292.652344 40.40625 291.980469 41.078125 291.304688 C 50.941406 281.363281 76.734375 279.460938 81.265625 237.132812 C 91.316406 177.933594 110.242188 114.007812 160.355469 76.710938 C 202.136719 41.867188 289.007812 41.558594 302.484375 103.886719 C 310.265625 107.074219 337.402344 116.402344 337.527344 125.296875 " fill-opacity="1" fill-rule="nonzero"/></g><path fill="#1f3e47" d="M 285.574219 100.820312 C 285.574219 103.394531 284.535156 105.421875 283.25 105.421875 C 281.960938 105.421875 280.921875 103.335938 280.921875 100.820312 C 280.921875 98.304688 281.960938 96.21875 283.25 96.21875 C 284.535156 96.21875 285.574219 98.304688 285.574219 100.820312 " fill-opacity="1" fill-rule="nonzero"/><g clip-path="url(#3bc22078b3)"><path fill="#ffe2e1" d="M 210.835938 75.914062 C 208.816406 75.914062 208.816406 79.101562 210.835938 79.101562 C 212.859375 79.101562 212.859375 75.914062 210.835938 75.914062 Z M 242.691406 71.617188 C 240.304688 71.617188 240.304688 75.300781 242.691406 75.300781 C 245.019531 75.300781 245.019531 71.617188 242.691406 71.617188 Z M 244.101562 57.445312 C 241.898438 57.445312 241.898438 60.882812 244.101562 60.882812 C 246.308594 60.882812 246.308594 57.445312 244.101562 57.445312 Z M 272.894531 72.292969 C 271.546875 72.292969 271.546875 74.378906 272.894531 74.378906 C 274.242188 74.316406 274.242188 72.292969 272.894531 72.292969 Z M 256.660156 72.597656 C 252.433594 72.597656 252.433594 79.164062 256.660156 79.164062 C 260.828125 79.164062 260.828125 72.597656 256.660156 72.597656 Z M 184.492188 74.253906 C 181.492188 74.253906 181.492188 78.917969 184.492188 78.917969 C 187.496094 78.980469 187.496094 74.253906 184.492188 74.253906 Z M 160.96875 83.335938 C 159.4375 83.335938 159.4375 85.730469 160.96875 85.730469 C 162.5625 85.730469 162.5625 83.335938 160.96875 83.335938 Z M 176.285156 68.425781 C 172.976562 68.425781 172.976562 73.582031 176.285156 73.582031 C 179.59375 73.582031 179.59375 68.425781 176.285156 68.425781 Z M 195.277344 62.785156 C 192.703125 62.785156 192.703125 66.769531 195.277344 66.769531 C 197.847656 66.769531 197.847656 62.785156 195.277344 62.785156 Z M 220.023438 66.15625 C 217.390625 66.15625 217.332031 70.328125 220.023438 70.328125 C 222.722656 70.328125 222.722656 66.15625 220.023438 66.15625 Z M 217.144531 58.121094 C 215.371094 58.121094 215.371094 60.820312 217.144531 60.820312 C 218.925781 60.820312 218.925781 58.121094 217.144531 58.121094 Z M 205.628906 65.238281 C 201.585938 65.238281 201.523438 71.558594 205.628906 71.558594 C 209.734375 71.558594 209.734375 65.238281 205.628906 65.238281 Z M 232.15625 57.816406 C 229.703125 57.816406 229.703125 61.679688 232.15625 61.679688 C 234.605469 61.679688 234.605469 57.816406 232.15625 57.816406 Z M 233.871094 65.117188 C 230.074219 65.117188 230.074219 71.066406 233.871094 71.066406 C 237.667969 71.066406 237.730469 65.117188 233.871094 65.117188 Z M 257.519531 64.316406 C 256.601562 64.316406 256.539062 65.792969 257.519531 65.792969 C 258.4375 65.792969 258.4375 64.316406 257.519531 64.316406 Z M 85.859375 287.5625 C 85.859375 287.191406 85.554688 286.949219 85.1875 286.949219 C 84.820312 286.949219 84.574219 287.253906 84.574219 287.621094 C 84.882812 297.316406 83.351562 307.191406 80.164062 316.394531 C 80.410156 317.007812 80.652344 317.558594 80.960938 318.109375 C 84.453125 308.359375 86.109375 297.867188 85.859375 287.5625 Z M 91.558594 284.496094 C 91.558594 284.125 91.253906 283.882812 90.886719 283.882812 C 90.519531 283.882812 90.273438 284.1875 90.273438 284.554688 C 91.007812 297.070312 89.597656 309.953125 86.230469 322.097656 C 86.65625 322.160156 87.085938 322.222656 87.578125 322.222656 C 90.945312 310.015625 92.292969 297.070312 91.558594 284.496094 Z M 94.804688 282.285156 C 94.742188 281.917969 94.4375 281.671875 94.070312 281.734375 C 93.703125 281.792969 93.460938 282.101562 93.519531 282.46875 C 95.417969 294.433594 95.480469 306.824219 93.703125 318.910156 C 94.257812 318.296875 94.804688 317.558594 95.296875 316.703125 C 96.765625 305.289062 96.644531 293.632812 94.804688 282.285156 Z M 80.226562 283.574219 C 80.042969 283.269531 79.613281 283.207031 79.304688 283.449219 L 51.066406 303.941406 C 52.167969 303.757812 53.269531 303.449219 54.375 303.144531 L 80.042969 284.554688 C 80.410156 284.246094 80.472656 283.820312 80.226562 283.574219 Z M 77.53125 279.648438 C 77.347656 279.339844 76.917969 279.28125 76.613281 279.460938 C 64.480469 287.683594 51.496094 294.863281 38.078125 300.75 C 38.261719 301.117188 38.566406 301.488281 38.875 301.792969 C 52.292969 295.902344 65.214844 288.789062 77.347656 280.507812 C 77.652344 280.324219 77.714844 279.953125 77.53125 279.648438 Z M 74.832031 272.53125 C 74.589844 272.226562 74.222656 272.226562 73.914062 272.40625 C 63.929688 280.136719 52.78125 286.515625 41.019531 291.304688 C 40.34375 291.980469 39.792969 292.652344 39.242188 293.390625 C 51.921875 288.480469 63.992188 281.734375 74.652344 273.453125 C 75.019531 273.207031 75.082031 272.839844 74.832031 272.53125 Z M 287.539062 119.164062 C 288.332031 117.875 289.070312 116.710938 289.128906 116.585938 C 289.3125 116.277344 289.25 115.847656 288.945312 115.664062 C 288.636719 115.484375 288.210938 115.542969 288.027344 115.847656 C 288.027344 115.910156 285.269531 120.207031 284.167969 121.371094 C 283.921875 121.617188 283.921875 122.046875 284.226562 122.289062 C 284.351562 122.414062 284.535156 122.476562 284.65625 122.476562 C 284.839844 122.476562 285.023438 122.414062 285.148438 122.289062 C 285.574219 121.863281 286.1875 121.003906 286.800781 120.144531 C 286.863281 120.207031 286.925781 120.265625 287.046875 120.328125 C 300.648438 126.523438 315.472656 129.652344 330.359375 129.652344 C 331.890625 129.652344 333.421875 129.59375 334.890625 129.53125 C 335.503906 129.160156 335.996094 128.671875 336.421875 128.117188 C 319.761719 129.160156 302.851562 126.09375 287.539062 119.164062 Z M 258.007812 131.433594 C 254.945312 136.035156 251.636719 140.386719 248.023438 144.558594 C 270.8125 137.136719 294.582031 132.84375 318.351562 131.984375 C 296.847656 128.546875 276.632812 128.671875 258.007812 131.433594 Z M 226.089844 138.976562 C 224.132812 144.929688 221.554688 150.695312 218.433594 156.152344 C 166.054688 180.140625 121.148438 220.753906 95.789062 272.285156 C 94.195312 262.589844 117.839844 223.148438 135.484375 201.246094 C 154.597656 177.503906 185.597656 152.289062 226.089844 138.976562 " fill-opacity="1" fill-rule="nonzero"/></g></svg>